G75*
G70*
%OFA0B0*%
%FSLAX24Y24*%
%IPPOS*%
%LPD*%
%AMOC8*
5,1,8,0,0,1.08239X$1,22.5*
%
%ADD10R,0.0748X0.0945*%
%ADD11R,0.0472X0.0472*%
%ADD12R,0.0276X0.0472*%
%ADD13R,0.0472X0.0276*%
%ADD14R,0.0300X0.0300*%
%ADD15R,0.0354X0.0276*%
%ADD16R,0.0276X0.0354*%
%ADD17R,0.0472X0.0217*%
%ADD18R,0.0460X0.0630*%
%ADD19R,0.0866X0.0335*%
%ADD20R,0.0413X0.0394*%
%ADD21R,0.0591X0.0276*%
%ADD22R,0.0551X0.0709*%
%ADD23R,0.0748X0.0551*%
%ADD24R,0.0800X0.0260*%
%ADD25R,0.0315X0.0354*%
%ADD26R,0.0630X0.0460*%
%ADD27R,0.0600X0.0300*%
D10*
X009476Y005685D03*
X010893Y005685D03*
X012310Y005685D03*
X012310Y007220D03*
X010893Y007220D03*
X009476Y007220D03*
D11*
X008039Y008756D03*
X013747Y008756D03*
X013747Y004149D03*
X008039Y004149D03*
D12*
X008767Y004149D03*
X009240Y004149D03*
X009712Y004149D03*
X010184Y004149D03*
X010657Y004149D03*
X011129Y004149D03*
X011602Y004149D03*
X012074Y004149D03*
X012547Y004149D03*
X013019Y004149D03*
X013019Y008756D03*
X012547Y008756D03*
X012074Y008756D03*
X011602Y008756D03*
X011129Y008756D03*
X010657Y008756D03*
X010184Y008756D03*
X009712Y008756D03*
X009240Y008756D03*
X008767Y008756D03*
D13*
X008039Y008106D03*
X008039Y007634D03*
X008039Y007161D03*
X008039Y006689D03*
X008039Y006216D03*
X008039Y005744D03*
X008039Y005271D03*
X008039Y004799D03*
X013747Y004799D03*
X013747Y005271D03*
X013747Y005744D03*
X013747Y006216D03*
X013747Y006689D03*
X013747Y007161D03*
X013747Y007634D03*
X013747Y008106D03*
D14*
X014737Y008340D03*
X014737Y008940D03*
X012297Y009765D03*
X011697Y009765D03*
X012737Y011278D03*
X012737Y011878D03*
X013489Y011878D03*
X013489Y011278D03*
X009303Y009640D03*
X008703Y009640D03*
X007237Y008170D03*
X007237Y007570D03*
X009437Y015390D03*
X010037Y015390D03*
X007037Y017390D03*
X006437Y017390D03*
X004362Y017215D03*
X004362Y017815D03*
X003549Y017815D03*
X003549Y017215D03*
X002237Y017215D03*
X002237Y017815D03*
X026862Y007753D03*
X026862Y007153D03*
D15*
X007112Y005271D03*
X007112Y004760D03*
X005487Y004760D03*
X005487Y005272D03*
X003799Y005272D03*
X003799Y004760D03*
D16*
X004372Y005272D03*
X004883Y005272D03*
X006043Y005272D03*
X006555Y005272D03*
D17*
X013020Y009766D03*
X013020Y010514D03*
X014044Y010514D03*
X014044Y010140D03*
X014044Y009766D03*
D18*
X011493Y001203D03*
X010893Y001203D03*
X010293Y001203D03*
D19*
X002487Y002224D03*
X002487Y003306D03*
D20*
X003087Y002765D03*
D21*
X004048Y013097D03*
X004205Y013530D03*
X004048Y013963D03*
X003890Y014396D03*
X004048Y014829D03*
X003890Y015262D03*
X004048Y015695D03*
X004048Y016128D03*
D22*
X008064Y015853D03*
X008064Y013490D03*
D23*
X002906Y016483D03*
X002552Y011286D03*
D24*
X009277Y011140D03*
X009277Y011640D03*
X009277Y012140D03*
X009277Y012640D03*
X009277Y013140D03*
X009277Y013640D03*
X009277Y014140D03*
X011697Y014140D03*
X011697Y013640D03*
X011697Y013140D03*
X011697Y012640D03*
X011697Y012140D03*
X011697Y011640D03*
X011697Y011140D03*
X011697Y010640D03*
X009277Y010640D03*
D25*
X026863Y008496D03*
X027611Y008496D03*
X027237Y009323D03*
D26*
X027612Y007565D03*
X027612Y006965D03*
D27*
X006924Y008953D03*
X006924Y010453D03*
X004924Y010453D03*
X004924Y008953D03*
M02*
