G75*
G70*
%OFA0B0*%
%FSLAX24Y24*%
%IPPOS*%
%LPD*%
%AMOC8*
5,1,8,0,0,1.08239X$1,22.5*
%
%ADD10C,0.0120*%
%ADD11C,0.0100*%
%ADD12C,0.0080*%
%ADD13C,0.0090*%
%ADD14C,0.0050*%
%ADD15C,0.0040*%
D10*
X009987Y016715D02*
X014587Y016715D01*
X014624Y016708D01*
X014662Y016704D01*
X014700Y016703D01*
X014738Y016706D01*
X014776Y016713D01*
X014812Y016723D01*
X014848Y016736D01*
X014882Y016752D01*
X014915Y016772D01*
X014946Y016794D01*
X014974Y016820D01*
X015000Y016847D01*
X015024Y016877D01*
X015044Y016910D01*
X015062Y016943D01*
X015076Y016979D01*
X015087Y017015D01*
X015087Y017515D01*
X015081Y017549D01*
X015071Y017582D01*
X015058Y017615D01*
X015042Y017645D01*
X015022Y017674D01*
X015001Y017701D01*
X014976Y017726D01*
X014949Y017748D01*
X014921Y017768D01*
X014890Y017784D01*
X014858Y017798D01*
X014825Y017808D01*
X014791Y017815D01*
X014756Y017818D01*
X014722Y017819D01*
X014687Y017815D01*
X009887Y017815D01*
X009850Y017819D01*
X009813Y017818D01*
X009776Y017814D01*
X009740Y017806D01*
X009705Y017794D01*
X009672Y017778D01*
X009640Y017759D01*
X009610Y017737D01*
X009583Y017711D01*
X009559Y017684D01*
X009537Y017653D01*
X009519Y017621D01*
X009505Y017587D01*
X009494Y017551D01*
X009487Y017515D01*
X009487Y017015D01*
X009498Y016979D01*
X009512Y016943D01*
X009530Y016910D01*
X009550Y016877D01*
X009574Y016847D01*
X009600Y016820D01*
X009628Y016794D01*
X009659Y016772D01*
X009692Y016752D01*
X009726Y016736D01*
X009762Y016723D01*
X009798Y016713D01*
X009836Y016706D01*
X009874Y016703D01*
X009912Y016704D01*
X009950Y016708D01*
X009987Y016715D01*
D11*
X009981Y016985D02*
X009901Y017065D01*
X009981Y017145D01*
X010141Y017145D01*
X010221Y017225D01*
X010141Y017305D01*
X009901Y017305D01*
X009981Y016985D02*
X010221Y016985D01*
X010435Y016985D02*
X010675Y016985D01*
X010755Y017065D01*
X010755Y017225D01*
X010675Y017305D01*
X010435Y017305D01*
X011031Y017305D02*
X011031Y016985D01*
X011111Y016985D02*
X010951Y016985D01*
X011325Y016985D02*
X011325Y017225D01*
X011405Y017305D01*
X011645Y017305D01*
X011645Y016985D01*
X011859Y017065D02*
X011859Y017225D01*
X011939Y017305D01*
X012099Y017305D01*
X012179Y017225D01*
X012179Y017065D01*
X012099Y016985D01*
X011939Y016985D01*
X011859Y017065D01*
X011903Y016574D02*
X011903Y016490D01*
X011903Y016324D02*
X011903Y015990D01*
X011986Y015990D02*
X011819Y015990D01*
X011618Y016073D02*
X011618Y016240D01*
X011534Y016324D01*
X011284Y016324D01*
X011065Y016240D02*
X010982Y016324D01*
X010732Y016324D01*
X010815Y016157D02*
X010982Y016157D01*
X011065Y016240D01*
X011065Y015990D02*
X010815Y015990D01*
X010732Y016073D01*
X010815Y016157D01*
X010513Y016073D02*
X010429Y016073D01*
X010429Y015990D01*
X010513Y015990D01*
X010513Y016073D01*
X010236Y016073D02*
X010236Y016240D01*
X010153Y016324D01*
X009903Y016324D01*
X009684Y016240D02*
X009684Y016073D01*
X009601Y015990D01*
X009434Y015990D01*
X009350Y016073D01*
X009350Y016240D01*
X009434Y016324D01*
X009601Y016324D01*
X009684Y016240D01*
X009903Y015990D02*
X010153Y015990D01*
X010236Y016073D01*
X011284Y015990D02*
X011534Y015990D01*
X011618Y016073D01*
X011903Y016324D02*
X011986Y016324D01*
X012205Y016240D02*
X012205Y015990D01*
X012205Y016240D02*
X012288Y016324D01*
X012538Y016324D01*
X012538Y015990D01*
X012757Y016073D02*
X012757Y016240D01*
X012841Y016324D01*
X013007Y016324D01*
X013091Y016240D01*
X013091Y016073D01*
X013007Y015990D01*
X012841Y015990D01*
X012757Y016073D01*
X013301Y016324D02*
X013384Y016324D01*
X013551Y016157D01*
X013551Y015990D02*
X013551Y016324D01*
X013753Y016324D02*
X013920Y016324D01*
X013836Y016407D02*
X013836Y016073D01*
X013753Y015990D01*
X014138Y016157D02*
X014472Y016157D01*
X014472Y016240D02*
X014389Y016324D01*
X014222Y016324D01*
X014138Y016240D01*
X014138Y016157D01*
X014222Y015990D02*
X014389Y015990D01*
X014472Y016073D01*
X014472Y016240D01*
X014691Y016240D02*
X014691Y016157D01*
X015025Y016157D01*
X015025Y016240D02*
X014941Y016324D01*
X014774Y016324D01*
X014691Y016240D01*
X014774Y015990D02*
X014941Y015990D01*
X015025Y016073D01*
X015025Y016240D01*
X015235Y016324D02*
X015318Y016324D01*
X015485Y016157D01*
X015485Y015990D02*
X015485Y016324D01*
X015686Y016240D02*
X015853Y016240D01*
X015770Y016407D02*
X015686Y016490D01*
X015770Y016407D02*
X015770Y015990D01*
X016046Y015990D02*
X016129Y015990D01*
X016129Y016073D01*
X016046Y016073D01*
X016046Y015990D01*
X016348Y016073D02*
X016348Y016324D01*
X016348Y016073D02*
X016432Y015990D01*
X016515Y016073D01*
X016599Y015990D01*
X016682Y016073D01*
X016682Y016324D01*
X016901Y016324D02*
X016901Y016073D01*
X016984Y015990D01*
X017068Y016073D01*
X017151Y015990D01*
X017234Y016073D01*
X017234Y016324D01*
X017453Y016324D02*
X017453Y016073D01*
X017537Y015990D01*
X017620Y016073D01*
X017703Y015990D01*
X017787Y016073D01*
X017787Y016324D01*
X014849Y017225D02*
X014689Y017225D01*
X014769Y017385D02*
X014689Y017465D01*
X014769Y017385D02*
X014769Y016985D01*
X014493Y016985D02*
X014493Y017305D01*
X014333Y017305D02*
X014253Y017305D01*
X014333Y017305D02*
X014493Y017145D01*
X014048Y017145D02*
X013728Y017145D01*
X013728Y017225D01*
X013808Y017305D01*
X013968Y017305D01*
X014048Y017225D01*
X014048Y017065D01*
X013968Y016985D01*
X013808Y016985D01*
X013514Y017065D02*
X013514Y017225D01*
X013434Y017305D01*
X013274Y017305D01*
X013194Y017225D01*
X013194Y017145D01*
X013514Y017145D01*
X013514Y017065D02*
X013434Y016985D01*
X013274Y016985D01*
X012900Y017065D02*
X012820Y016985D01*
X012900Y017065D02*
X012900Y017385D01*
X012980Y017305D02*
X012820Y017305D01*
X012624Y017305D02*
X012624Y016985D01*
X012624Y017145D02*
X012464Y017305D01*
X012384Y017305D01*
X011111Y017305D02*
X011031Y017305D01*
X011031Y017465D02*
X011031Y017545D01*
X009131Y016324D02*
X009131Y015990D01*
X008965Y015990D02*
X008965Y016240D01*
X008881Y016324D01*
X008798Y016240D01*
X008798Y015990D01*
X008579Y015990D02*
X008245Y016490D01*
X008027Y016324D02*
X008027Y016073D01*
X007943Y015990D01*
X007860Y016073D01*
X007776Y015990D01*
X007693Y016073D01*
X007693Y016324D01*
X007474Y016324D02*
X007391Y016324D01*
X007391Y015990D01*
X007474Y015990D02*
X007307Y015990D01*
X007022Y015990D02*
X007022Y016407D01*
X006939Y016490D01*
X006939Y016240D02*
X007106Y016240D01*
X006737Y016324D02*
X006654Y016324D01*
X006654Y015990D01*
X006737Y015990D02*
X006571Y015990D01*
X006654Y016490D02*
X006654Y016574D01*
X007391Y016574D02*
X007391Y016490D01*
X008965Y016240D02*
X009048Y016324D01*
X009131Y016324D01*
D12*
X009404Y015205D02*
X009527Y015205D01*
X009466Y015205D02*
X009466Y015575D01*
X009527Y015575D02*
X009404Y015575D01*
X009695Y015575D02*
X009942Y015575D01*
X009942Y015205D01*
X010094Y015205D02*
X010218Y015205D01*
X010156Y015205D02*
X010156Y015575D01*
X010218Y015575D02*
X010094Y015575D01*
X009942Y015390D02*
X009818Y015390D01*
X010385Y015205D02*
X010385Y015575D01*
X010632Y015575D02*
X010632Y015205D01*
X010509Y015328D01*
X010385Y015205D01*
X011192Y015205D02*
X011254Y015205D01*
X011254Y015267D01*
X011192Y015267D01*
X011192Y015205D01*
X011192Y015390D02*
X011254Y015390D01*
X011254Y015452D01*
X011192Y015452D01*
X011192Y015390D01*
X011421Y015267D02*
X011421Y015575D01*
X011668Y015575D02*
X011668Y015267D01*
X011606Y015205D01*
X011483Y015205D01*
X011421Y015267D01*
X011836Y015205D02*
X012021Y015390D01*
X012083Y015328D02*
X011836Y015575D01*
X012083Y015575D02*
X012083Y015205D01*
X012250Y015267D02*
X012312Y015205D01*
X012435Y015205D01*
X012497Y015267D01*
X012435Y015390D02*
X012312Y015390D01*
X012250Y015328D01*
X012250Y015267D01*
X012435Y015390D02*
X012497Y015452D01*
X012497Y015514D01*
X012435Y015575D01*
X012312Y015575D01*
X012250Y015514D01*
D13*
X006417Y020585D02*
X006280Y020722D01*
X006143Y020585D01*
X006143Y020995D01*
X005956Y020859D02*
X005888Y020859D01*
X005888Y020585D01*
X005956Y020585D02*
X005820Y020585D01*
X005650Y020585D02*
X005650Y020995D01*
X005376Y020995D01*
X005189Y020859D02*
X005121Y020859D01*
X005121Y020585D01*
X005189Y020585D02*
X005052Y020585D01*
X005121Y020995D02*
X005121Y021064D01*
X005513Y020790D02*
X005650Y020790D01*
X005888Y020995D02*
X005888Y021064D01*
X006417Y020995D02*
X006417Y020585D01*
X004422Y020653D02*
X004353Y020585D01*
X004217Y020585D01*
X004148Y020653D01*
X004148Y020722D01*
X004217Y020790D01*
X004353Y020790D01*
X004422Y020859D01*
X004422Y020927D01*
X004353Y020995D01*
X004217Y020995D01*
X004148Y020927D01*
X003961Y020995D02*
X003961Y020585D01*
X003961Y020790D02*
X003893Y020859D01*
X003756Y020859D01*
X003688Y020790D01*
X003688Y020585D01*
X003501Y020585D02*
X003364Y020585D01*
X003433Y020585D02*
X003433Y020859D01*
X003501Y020859D01*
X003433Y020995D02*
X003433Y021064D01*
X003194Y020790D02*
X003126Y020859D01*
X002989Y020859D01*
X002921Y020790D01*
X002921Y020722D01*
X003194Y020722D01*
X003194Y020790D02*
X003194Y020653D01*
X003126Y020585D01*
X002989Y020585D01*
X002734Y020585D02*
X002597Y020585D01*
X002665Y020585D02*
X002665Y020995D01*
X002734Y020995D01*
X002427Y020790D02*
X002358Y020859D01*
X002153Y020859D01*
X002153Y020995D02*
X002153Y020585D01*
X002358Y020585D01*
X002427Y020653D01*
X002427Y020790D01*
D14*
X005226Y020324D02*
X005433Y020117D01*
X005381Y020065D01*
X005278Y020065D01*
X005226Y020117D01*
X005226Y020324D01*
X005278Y020375D01*
X005381Y020375D01*
X005433Y020324D01*
X005433Y020117D01*
X005547Y020117D02*
X005547Y020065D01*
X005599Y020065D01*
X005599Y020117D01*
X005547Y020117D01*
X005724Y020065D02*
X005930Y020065D01*
X005827Y020065D02*
X005827Y020375D01*
X005930Y020272D01*
X006055Y020272D02*
X006158Y020065D01*
X006262Y020272D01*
D15*
X018926Y017175D02*
X019893Y017175D01*
X019873Y017095D02*
X019873Y016785D01*
X019770Y016888D01*
X019666Y016785D01*
X019666Y017095D01*
X019551Y017044D02*
X019551Y016837D01*
X019499Y016785D01*
X019396Y016785D01*
X019344Y016837D01*
X019229Y016837D02*
X019177Y016785D01*
X019073Y016785D01*
X019022Y016837D01*
X019022Y016888D01*
X019073Y016940D01*
X019177Y016940D01*
X019229Y016992D01*
X019229Y017044D01*
X019177Y017095D01*
X019073Y017095D01*
X019022Y017044D01*
X019344Y017044D02*
X019396Y017095D01*
X019499Y017095D01*
X019551Y017044D01*
X020186Y017175D02*
X020831Y017175D01*
X020759Y017095D02*
X020811Y017044D01*
X020811Y016837D01*
X020759Y016785D01*
X020655Y016785D01*
X020604Y016837D01*
X020488Y016785D02*
X020333Y016785D01*
X020282Y016837D01*
X020282Y017044D01*
X020333Y017095D01*
X020488Y017095D01*
X020488Y016785D01*
X020604Y017044D02*
X020655Y017095D01*
X020759Y017095D01*
X020990Y017095D02*
X020990Y016785D01*
X021197Y017095D01*
X021197Y016785D01*
X021313Y016785D02*
X021520Y016785D01*
X021520Y017095D01*
X021313Y017095D01*
X021416Y016940D02*
X021520Y016940D01*
X021635Y016785D02*
X021635Y017095D01*
X021842Y017095D02*
X021842Y016785D01*
X021738Y016888D01*
X021635Y016785D01*
X021990Y016837D02*
X022042Y016785D01*
X022146Y016785D01*
X022197Y016837D01*
X022146Y016940D02*
X022042Y016940D01*
X021990Y016888D01*
X021990Y016837D01*
X022146Y016940D02*
X022197Y016992D01*
X022197Y017044D01*
X022146Y017095D01*
X022042Y017095D01*
X021990Y017044D01*
X021895Y017175D02*
X022862Y017175D01*
X022790Y017095D02*
X022842Y017044D01*
X022842Y016992D01*
X022790Y016940D01*
X022687Y016940D01*
X022635Y016888D01*
X022635Y016837D01*
X022687Y016785D01*
X022790Y016785D01*
X022842Y016837D01*
X023098Y016837D02*
X023098Y017044D01*
X023150Y017095D01*
X023253Y017095D01*
X023305Y017044D01*
X023305Y016837D01*
X023253Y016785D01*
X023150Y016785D01*
X023098Y016837D01*
X023098Y016785D02*
X023201Y016888D01*
X023420Y016940D02*
X023472Y016888D01*
X023627Y016888D01*
X023627Y016785D02*
X023627Y017095D01*
X023472Y017095D01*
X023420Y017044D01*
X023420Y016940D01*
X023524Y016888D02*
X023420Y016785D01*
X023738Y016785D02*
X023842Y016785D01*
X023790Y016785D02*
X023790Y017095D01*
X023842Y017095D02*
X023738Y017095D01*
X022790Y017095D02*
X022687Y017095D01*
X022635Y017044D01*
X022520Y017095D02*
X022520Y016785D01*
X022364Y016785D01*
X022313Y016837D01*
X022313Y017044D01*
X022364Y017095D01*
X022520Y017095D01*
M02*
