G75*
G70*
%OFA0B0*%
%FSLAX24Y24*%
%IPPOS*%
%LPD*%
%AMOC8*
5,1,8,0,0,1.08239X$1,22.5*
%
%ADD10C,0.0050*%
%ADD11C,0.0100*%
%ADD12C,0.0080*%
%ADD13C,0.0160*%
%ADD14C,0.0090*%
%ADD15C,0.0120*%
%ADD16C,0.0060*%
%ADD17C,0.0039*%
%ADD18C,0.0276*%
%ADD19C,0.0040*%
%ADD20C,0.0070*%
D10*
X002043Y001103D02*
X002043Y001289D01*
X002137Y001383D01*
X002230Y001289D01*
X002230Y001103D01*
X002347Y001103D02*
X002347Y001383D01*
X002534Y001103D01*
X002534Y001383D01*
X002651Y001383D02*
X002838Y001383D01*
X002744Y001383D02*
X002744Y001103D01*
X002776Y001540D02*
X002776Y001820D01*
X002869Y001820D02*
X002682Y001820D01*
X002565Y001820D02*
X002378Y001540D01*
X002261Y001540D02*
X002074Y001540D01*
X002074Y001820D01*
X002261Y001820D01*
X002378Y001820D02*
X002565Y001540D01*
X002168Y001680D02*
X002074Y001680D01*
X001975Y001978D02*
X002999Y001978D01*
X002999Y002489D01*
X002999Y003041D02*
X002999Y003552D01*
X001975Y003552D01*
X001975Y002489D01*
X001975Y002291D01*
X001975Y001978D01*
X002043Y001243D02*
X002230Y001243D01*
X005981Y003238D02*
X006022Y003196D01*
X006106Y003196D01*
X006147Y003238D01*
X006147Y003280D01*
X006106Y003321D01*
X006022Y003321D01*
X005981Y003363D01*
X005981Y003405D01*
X006022Y003446D01*
X006106Y003446D01*
X006147Y003405D01*
X006257Y003446D02*
X006257Y003196D01*
X006424Y003196D01*
X006533Y003196D02*
X006700Y003196D01*
X006533Y003196D02*
X006533Y003446D01*
X006424Y003446D02*
X006257Y003446D01*
X006257Y003321D02*
X006340Y003321D01*
X006257Y003603D02*
X006257Y003853D01*
X006424Y003603D01*
X006424Y003853D01*
X006533Y003853D02*
X006700Y003853D01*
X006616Y003853D02*
X006616Y003603D01*
X006147Y003603D02*
X006147Y003769D01*
X006064Y003853D01*
X005981Y003769D01*
X005981Y003603D01*
X005981Y003728D02*
X006147Y003728D01*
X007262Y003465D02*
X007462Y003465D01*
X007362Y003465D02*
X007362Y003165D01*
X007362Y002965D02*
X007362Y002665D01*
X007584Y002665D02*
X007784Y002865D01*
X007784Y002915D01*
X007734Y002965D01*
X007634Y002965D01*
X007584Y002915D01*
X007462Y002965D02*
X007262Y002965D01*
X007584Y003165D02*
X007784Y003165D01*
X007684Y003165D02*
X007684Y003465D01*
X007584Y003365D01*
X007584Y002665D02*
X007784Y002665D01*
X009231Y002232D02*
X009411Y002232D01*
X009321Y002232D02*
X009321Y001962D01*
X009525Y001962D02*
X009705Y002232D01*
X009525Y002232D02*
X009705Y001962D01*
X010231Y001946D02*
X010231Y002216D01*
X010366Y002216D01*
X010411Y002171D01*
X010411Y002081D01*
X010366Y002036D01*
X010231Y002036D01*
X010321Y002036D02*
X010411Y001946D01*
X010525Y001946D02*
X010705Y002216D01*
X010525Y002216D02*
X010705Y001946D01*
X011106Y002007D02*
X011151Y001962D01*
X011241Y001962D01*
X011286Y002007D01*
X011286Y002097D01*
X011196Y002097D01*
X011286Y002187D02*
X011241Y002232D01*
X011151Y002232D01*
X011106Y002187D01*
X011106Y002007D01*
X011400Y001962D02*
X011400Y002232D01*
X011580Y001962D01*
X011580Y002232D01*
X011695Y002232D02*
X011830Y002232D01*
X011875Y002187D01*
X011875Y002007D01*
X011830Y001962D01*
X011695Y001962D01*
X011695Y002232D01*
X012295Y002260D02*
X012295Y001990D01*
X012476Y001990D02*
X012295Y002260D01*
X012476Y002260D02*
X012476Y001990D01*
X012590Y002035D02*
X012635Y001990D01*
X012725Y001990D01*
X012770Y002035D01*
X012590Y002035D02*
X012590Y002215D01*
X012635Y002260D01*
X012725Y002260D01*
X012770Y002215D01*
X013183Y002260D02*
X013273Y002260D01*
X013228Y002260D02*
X013228Y001990D01*
X013183Y001990D02*
X013273Y001990D01*
X013379Y002035D02*
X013424Y001990D01*
X013514Y001990D01*
X013559Y002035D01*
X013559Y002215D01*
X013514Y002260D01*
X013424Y002260D01*
X013379Y002215D01*
X013379Y002035D01*
X013674Y001990D02*
X013674Y002260D01*
X013809Y002260D01*
X013854Y002215D01*
X013854Y002125D01*
X013809Y002080D01*
X013674Y002080D01*
X013764Y002080D02*
X013854Y001990D01*
X014108Y001990D02*
X014108Y002260D01*
X014243Y002260D01*
X014288Y002215D01*
X014288Y002125D01*
X014243Y002080D01*
X014108Y002080D01*
X014198Y002080D02*
X014288Y001990D01*
X014403Y002035D02*
X014448Y001990D01*
X014538Y001990D01*
X014583Y002035D01*
X014583Y002080D01*
X014538Y002125D01*
X014448Y002125D01*
X014403Y002170D01*
X014403Y002215D01*
X014448Y002260D01*
X014538Y002260D01*
X014583Y002215D01*
X014697Y002260D02*
X014877Y002260D01*
X014787Y002260D02*
X014787Y001990D01*
X015106Y002048D02*
X015151Y002003D01*
X015241Y002003D01*
X015287Y002048D01*
X015287Y002093D01*
X015241Y002138D01*
X015196Y002138D01*
X015241Y002138D02*
X015287Y002183D01*
X015287Y002228D01*
X015241Y002273D01*
X015151Y002273D01*
X015106Y002228D01*
X014967Y002360D02*
X014083Y002360D01*
X015401Y002273D02*
X015401Y002093D01*
X015491Y002003D01*
X015581Y002093D01*
X015581Y002273D01*
X015696Y002228D02*
X015741Y002273D01*
X015831Y002273D01*
X015876Y002228D01*
X015876Y002183D01*
X015831Y002138D01*
X015876Y002093D01*
X015876Y002048D01*
X015831Y002003D01*
X015741Y002003D01*
X015696Y002048D01*
X015786Y002138D02*
X015831Y002138D01*
X016219Y002138D02*
X016309Y002183D01*
X016354Y002183D01*
X016399Y002138D01*
X016399Y002048D01*
X016354Y002003D01*
X016264Y002003D01*
X016219Y002048D01*
X016219Y002138D02*
X016219Y002273D01*
X016399Y002273D01*
X016514Y002273D02*
X016514Y002093D01*
X016604Y002003D01*
X016694Y002093D01*
X016694Y002273D01*
X017103Y002228D02*
X017103Y002048D01*
X017148Y002003D01*
X017238Y002003D01*
X017284Y002048D01*
X017284Y002138D01*
X017193Y002138D01*
X017103Y002228D02*
X017148Y002273D01*
X017238Y002273D01*
X017284Y002228D01*
X017398Y002273D02*
X017578Y002003D01*
X017578Y002273D01*
X017693Y002273D02*
X017828Y002273D01*
X017873Y002228D01*
X017873Y002048D01*
X017828Y002003D01*
X017693Y002003D01*
X017693Y002273D01*
X017398Y002273D02*
X017398Y002003D01*
X018103Y002048D02*
X018148Y002003D01*
X018238Y002003D01*
X018284Y002048D01*
X018284Y002138D01*
X018193Y002138D01*
X018103Y002228D02*
X018103Y002048D01*
X018103Y002228D02*
X018148Y002273D01*
X018238Y002273D01*
X018284Y002228D01*
X018398Y002273D02*
X018578Y002003D01*
X018578Y002273D01*
X018693Y002273D02*
X018693Y002003D01*
X018828Y002003D01*
X018873Y002048D01*
X018873Y002228D01*
X018828Y002273D01*
X018693Y002273D01*
X018398Y002273D02*
X018398Y002003D01*
X019119Y002093D02*
X019209Y002003D01*
X019299Y002093D01*
X019299Y002273D01*
X019414Y002273D02*
X019504Y002273D01*
X019459Y002273D02*
X019459Y002003D01*
X019414Y002003D02*
X019504Y002003D01*
X019610Y002003D02*
X019610Y002273D01*
X019790Y002003D01*
X019790Y002273D01*
X019119Y002273D02*
X019119Y002093D01*
X021412Y002048D02*
X021592Y002228D01*
X021592Y002048D01*
X021547Y002003D01*
X021457Y002003D01*
X021412Y002048D01*
X021412Y002228D01*
X021457Y002273D01*
X021547Y002273D01*
X021592Y002228D01*
X022424Y002183D02*
X022514Y002273D01*
X022514Y002003D01*
X022424Y002003D02*
X022605Y002003D01*
X023412Y002003D02*
X023592Y002183D01*
X023592Y002228D01*
X023547Y002273D01*
X023457Y002273D01*
X023412Y002228D01*
X023412Y002003D02*
X023592Y002003D01*
X024412Y002048D02*
X024457Y002003D01*
X024547Y002003D01*
X024592Y002048D01*
X024592Y002093D01*
X024547Y002138D01*
X024502Y002138D01*
X024547Y002138D02*
X024592Y002183D01*
X024592Y002228D01*
X024547Y002273D01*
X024457Y002273D01*
X024412Y002228D01*
X025412Y002138D02*
X025592Y002138D01*
X025547Y002003D02*
X025547Y002273D01*
X025412Y002138D01*
X026412Y002138D02*
X026502Y002183D01*
X026547Y002183D01*
X026592Y002138D01*
X026592Y002048D01*
X026547Y002003D01*
X026457Y002003D01*
X026412Y002048D01*
X026412Y002138D02*
X026412Y002273D01*
X026592Y002273D01*
X025193Y000805D02*
X025193Y000535D01*
X025012Y000805D01*
X025012Y000535D01*
X024906Y000535D02*
X024816Y000535D01*
X024861Y000535D02*
X024861Y000805D01*
X024816Y000805D02*
X024906Y000805D01*
X024407Y000760D02*
X024362Y000805D01*
X024272Y000805D01*
X024227Y000760D01*
X024227Y000580D01*
X024272Y000535D01*
X024362Y000535D01*
X024407Y000580D01*
X024407Y000670D01*
X024317Y000670D01*
X024112Y000760D02*
X024067Y000805D01*
X023977Y000805D01*
X023932Y000760D01*
X023932Y000580D01*
X023977Y000535D01*
X024067Y000535D01*
X024112Y000580D01*
X024112Y000760D01*
X023817Y000535D02*
X023637Y000535D01*
X023637Y000805D01*
X023523Y000715D02*
X023523Y000535D01*
X023523Y000670D02*
X023343Y000670D01*
X023343Y000715D02*
X023433Y000805D01*
X023523Y000715D01*
X023343Y000715D02*
X023343Y000535D01*
X023228Y000535D02*
X023228Y000805D01*
X023048Y000805D02*
X023048Y000535D01*
X022934Y000535D02*
X022934Y000715D01*
X022843Y000805D01*
X022753Y000715D01*
X022753Y000535D01*
X022753Y000670D02*
X022934Y000670D01*
X023048Y000805D02*
X023228Y000535D01*
X027387Y005665D02*
X027387Y005865D01*
X027487Y005965D01*
X027587Y005865D01*
X027587Y005665D01*
X027709Y005715D02*
X027909Y005915D01*
X027909Y005715D01*
X027859Y005665D01*
X027759Y005665D01*
X027709Y005715D01*
X027709Y005915D01*
X027759Y005965D01*
X027859Y005965D01*
X027909Y005915D01*
X027979Y006065D02*
X027979Y006365D01*
X028129Y006365D01*
X028179Y006315D01*
X028179Y006215D01*
X028129Y006165D01*
X027979Y006165D01*
X027857Y006165D02*
X027857Y006315D01*
X027807Y006365D01*
X027757Y006315D01*
X027757Y006165D01*
X027656Y006165D02*
X027656Y006365D01*
X027706Y006365D01*
X027757Y006315D01*
X027534Y006315D02*
X027534Y006265D01*
X027334Y006265D01*
X027334Y006215D02*
X027334Y006315D01*
X027384Y006365D01*
X027484Y006365D01*
X027534Y006315D01*
X027484Y006165D02*
X027384Y006165D01*
X027334Y006215D01*
X027112Y006165D02*
X027112Y006465D01*
X027012Y006465D02*
X027212Y006465D01*
X027387Y005815D02*
X027587Y005815D01*
X023937Y016634D02*
X023837Y016734D01*
X023937Y016684D02*
X023887Y016634D01*
X023787Y016634D01*
X023736Y016684D01*
X023736Y016884D01*
X023787Y016934D01*
X023887Y016934D01*
X023937Y016884D01*
X023937Y016684D01*
X023614Y016634D02*
X023514Y016734D01*
X023564Y016734D02*
X023414Y016734D01*
X023414Y016634D02*
X023414Y016934D01*
X023564Y016934D01*
X023614Y016884D01*
X023614Y016784D01*
X023564Y016734D01*
X023299Y016634D02*
X023199Y016634D01*
X023249Y016634D02*
X023249Y016934D01*
X023199Y016934D02*
X023299Y016934D01*
X023047Y017003D02*
X022081Y017003D01*
X022156Y016903D02*
X022106Y016853D01*
X022106Y016803D01*
X022156Y016753D01*
X022256Y016753D01*
X022306Y016703D01*
X022306Y016653D01*
X022256Y016603D01*
X022156Y016603D01*
X022106Y016653D01*
X021919Y016603D02*
X021919Y016903D01*
X021719Y016903D02*
X021719Y016603D01*
X021597Y016603D02*
X021397Y016603D01*
X021397Y016903D01*
X021597Y016903D01*
X021719Y016903D02*
X021919Y016603D01*
X022156Y016903D02*
X022256Y016903D01*
X022306Y016853D01*
X022428Y016853D02*
X022428Y016653D01*
X022478Y016603D01*
X022578Y016603D01*
X022628Y016653D01*
X022750Y016653D02*
X022800Y016603D01*
X022900Y016603D01*
X022950Y016653D01*
X022950Y016703D01*
X022900Y016753D01*
X022800Y016753D01*
X022750Y016803D01*
X022750Y016853D01*
X022800Y016903D01*
X022900Y016903D01*
X022950Y016853D01*
X022628Y016853D02*
X022578Y016903D01*
X022478Y016903D01*
X022428Y016853D01*
X021497Y016753D02*
X021397Y016753D01*
X021275Y016603D02*
X021275Y016903D01*
X021074Y016903D02*
X021074Y016603D01*
X021174Y016703D01*
X021275Y016603D01*
X020722Y016653D02*
X020722Y016853D01*
X020672Y016903D01*
X020522Y016903D01*
X020522Y016603D01*
X020672Y016603D01*
X020722Y016653D01*
X020400Y016653D02*
X020350Y016603D01*
X020249Y016603D01*
X020199Y016653D01*
X020199Y016853D01*
X020249Y016903D01*
X020350Y016903D01*
X020400Y016853D01*
X020174Y017003D02*
X020819Y017003D01*
X019954Y017003D02*
X018987Y017003D01*
X019012Y016903D02*
X019012Y016603D01*
X019112Y016703D01*
X019212Y016603D01*
X019212Y016903D01*
X019334Y016853D02*
X019334Y016653D01*
X019384Y016603D01*
X019484Y016603D01*
X019534Y016653D01*
X019656Y016653D02*
X019706Y016603D01*
X019807Y016603D01*
X019857Y016653D01*
X019857Y016703D01*
X019807Y016753D01*
X019706Y016753D01*
X019656Y016803D01*
X019656Y016853D01*
X019706Y016903D01*
X019807Y016903D01*
X019857Y016853D01*
X019534Y016853D02*
X019484Y016903D01*
X019384Y016903D01*
X019334Y016853D01*
X019387Y019490D02*
X019387Y019535D01*
X019567Y019715D01*
X019567Y019760D01*
X019387Y019760D01*
X020387Y019625D02*
X020387Y019535D01*
X020432Y019490D01*
X020522Y019490D01*
X020567Y019535D01*
X020567Y019580D01*
X020522Y019625D01*
X020387Y019625D01*
X020477Y019715D01*
X020567Y019760D01*
X021387Y019760D02*
X021387Y019625D01*
X021477Y019670D01*
X021522Y019670D01*
X021567Y019625D01*
X021567Y019535D01*
X021522Y019490D01*
X021432Y019490D01*
X021387Y019535D01*
X021387Y019760D02*
X021567Y019760D01*
X022387Y019625D02*
X022567Y019625D01*
X022522Y019490D02*
X022522Y019760D01*
X022387Y019625D01*
X023387Y019535D02*
X023432Y019490D01*
X023522Y019490D01*
X023567Y019535D01*
X023567Y019580D01*
X023522Y019625D01*
X023477Y019625D01*
X023522Y019625D02*
X023567Y019670D01*
X023567Y019715D01*
X023522Y019760D01*
X023432Y019760D01*
X023387Y019715D01*
X024387Y019715D02*
X024432Y019760D01*
X024522Y019760D01*
X024567Y019715D01*
X024567Y019670D01*
X024387Y019490D01*
X024567Y019490D01*
X025449Y019490D02*
X025630Y019490D01*
X025539Y019490D02*
X025539Y019760D01*
X025449Y019670D01*
X026387Y019715D02*
X026387Y019535D01*
X026567Y019715D01*
X026567Y019535D01*
X026522Y019490D01*
X026432Y019490D01*
X026387Y019535D01*
X026387Y019715D02*
X026432Y019760D01*
X026522Y019760D01*
X026567Y019715D01*
X024019Y021060D02*
X024019Y021240D01*
X023974Y021285D01*
X023884Y021285D01*
X023839Y021240D01*
X023839Y021060D01*
X023884Y021015D01*
X023974Y021015D01*
X024019Y021060D01*
X023724Y021285D02*
X023544Y021015D01*
X023438Y021015D02*
X023348Y021015D01*
X023393Y021015D02*
X023393Y021285D01*
X023348Y021285D02*
X023438Y021285D01*
X022939Y021015D02*
X022758Y021015D01*
X022758Y021285D01*
X022644Y021195D02*
X022644Y021015D01*
X022644Y021150D02*
X022464Y021150D01*
X022464Y021195D02*
X022554Y021285D01*
X022644Y021195D01*
X022464Y021195D02*
X022464Y021015D01*
X022259Y021015D02*
X022259Y021285D01*
X022169Y021285D02*
X022349Y021285D01*
X022063Y021285D02*
X021973Y021285D01*
X022018Y021285D02*
X022018Y021015D01*
X021973Y021015D02*
X022063Y021015D01*
X021858Y021060D02*
X021858Y021150D01*
X021768Y021150D01*
X021678Y021060D02*
X021723Y021015D01*
X021813Y021015D01*
X021858Y021060D01*
X021678Y021060D02*
X021678Y021240D01*
X021723Y021285D01*
X021813Y021285D01*
X021858Y021240D01*
X021572Y021285D02*
X021482Y021285D01*
X021527Y021285D02*
X021527Y021015D01*
X021482Y021015D02*
X021572Y021015D01*
X021367Y021060D02*
X021367Y021240D01*
X021322Y021285D01*
X021187Y021285D01*
X021187Y021015D01*
X021322Y021015D01*
X021367Y021060D01*
X017980Y019715D02*
X017980Y019670D01*
X017934Y019625D01*
X017844Y019625D01*
X017799Y019670D01*
X017799Y019715D01*
X017844Y019760D01*
X017934Y019760D01*
X017980Y019715D01*
X017934Y019625D02*
X017980Y019580D01*
X017980Y019535D01*
X017934Y019490D01*
X017844Y019490D01*
X017799Y019535D01*
X017799Y019580D01*
X017844Y019625D01*
X016980Y019625D02*
X016844Y019625D01*
X016799Y019670D01*
X016799Y019715D01*
X016844Y019760D01*
X016934Y019760D01*
X016980Y019715D01*
X016980Y019535D01*
X016934Y019490D01*
X016844Y019490D01*
X016799Y019535D01*
X016124Y019535D02*
X016079Y019490D01*
X015989Y019490D01*
X015944Y019535D01*
X016124Y019715D01*
X016124Y019535D01*
X015944Y019535D02*
X015944Y019715D01*
X015989Y019760D01*
X016079Y019760D01*
X016124Y019715D01*
X015830Y019490D02*
X015649Y019490D01*
X015739Y019490D02*
X015739Y019760D01*
X015649Y019670D01*
X015124Y019490D02*
X014944Y019490D01*
X015034Y019490D02*
X015034Y019760D01*
X014944Y019670D01*
X014830Y019490D02*
X014649Y019490D01*
X014739Y019490D02*
X014739Y019760D01*
X014649Y019670D01*
X014074Y019670D02*
X014074Y019715D01*
X014029Y019760D01*
X013939Y019760D01*
X013894Y019715D01*
X014074Y019670D02*
X013894Y019490D01*
X014074Y019490D01*
X013780Y019490D02*
X013599Y019490D01*
X013689Y019490D02*
X013689Y019760D01*
X013599Y019670D01*
X013112Y019670D02*
X013067Y019625D01*
X013112Y019580D01*
X013112Y019535D01*
X013067Y019490D01*
X012977Y019490D01*
X012932Y019535D01*
X012817Y019490D02*
X012637Y019490D01*
X012727Y019490D02*
X012727Y019760D01*
X012637Y019670D01*
X012932Y019715D02*
X012977Y019760D01*
X013067Y019760D01*
X013112Y019715D01*
X013112Y019670D01*
X013067Y019625D02*
X013022Y019625D01*
X012281Y019535D02*
X012281Y019715D01*
X012236Y019760D01*
X012101Y019760D01*
X012101Y019490D01*
X012236Y019490D01*
X012281Y019535D01*
X011987Y019490D02*
X011987Y019760D01*
X011807Y019760D02*
X011987Y019490D01*
X011807Y019490D02*
X011807Y019760D01*
X011692Y019715D02*
X011647Y019760D01*
X011557Y019760D01*
X011512Y019715D01*
X011512Y019535D01*
X011557Y019490D01*
X011647Y019490D01*
X011692Y019535D01*
X011692Y019625D01*
X011602Y019625D01*
X011294Y019760D02*
X011114Y019760D01*
X011114Y019490D01*
X010999Y019490D02*
X010909Y019580D01*
X010954Y019580D02*
X010819Y019580D01*
X010819Y019490D02*
X010819Y019760D01*
X010954Y019760D01*
X010999Y019715D01*
X010999Y019625D01*
X010954Y019580D01*
X011114Y019625D02*
X011204Y019625D01*
X010705Y019625D02*
X010524Y019625D01*
X010524Y019670D02*
X010614Y019760D01*
X010705Y019670D01*
X010705Y019490D01*
X010524Y019490D02*
X010524Y019670D01*
X010294Y019670D02*
X010294Y019490D01*
X010294Y019625D02*
X010114Y019625D01*
X010114Y019670D02*
X010204Y019760D01*
X010294Y019670D01*
X010114Y019670D02*
X010114Y019490D01*
X009999Y019535D02*
X009999Y019715D01*
X009954Y019760D01*
X009819Y019760D01*
X009819Y019490D01*
X009954Y019490D01*
X009999Y019535D01*
X009705Y019535D02*
X009659Y019490D01*
X009569Y019490D01*
X009524Y019535D01*
X009569Y019625D02*
X009659Y019625D01*
X009705Y019580D01*
X009705Y019535D01*
X009569Y019625D02*
X009524Y019670D01*
X009524Y019715D01*
X009569Y019760D01*
X009659Y019760D01*
X009705Y019715D01*
X009294Y019490D02*
X009114Y019490D01*
X009114Y019760D01*
X008999Y019715D02*
X008954Y019760D01*
X008864Y019760D01*
X008819Y019715D01*
X008819Y019535D01*
X008864Y019490D01*
X008954Y019490D01*
X008999Y019535D01*
X008705Y019535D02*
X008659Y019490D01*
X008569Y019490D01*
X008524Y019535D01*
X008569Y019625D02*
X008659Y019625D01*
X008705Y019580D01*
X008705Y019535D01*
X008569Y019625D02*
X008524Y019670D01*
X008524Y019715D01*
X008569Y019760D01*
X008659Y019760D01*
X008705Y019715D01*
X006222Y020117D02*
X006171Y020065D01*
X006067Y020065D01*
X006016Y020117D01*
X006222Y020324D01*
X006222Y020117D01*
X006016Y020117D02*
X006016Y020324D01*
X006067Y020375D01*
X006171Y020375D01*
X006222Y020324D01*
X005902Y020117D02*
X005902Y020065D01*
X005850Y020065D01*
X005850Y020117D01*
X005902Y020117D01*
X005725Y020065D02*
X005518Y020065D01*
X005622Y020065D02*
X005622Y020375D01*
X005518Y020272D01*
X005394Y020272D02*
X005290Y020065D01*
X005187Y020272D01*
X002875Y017928D02*
X002574Y017928D01*
X002674Y017928D02*
X002674Y017777D01*
X002725Y017727D01*
X002825Y017727D01*
X002875Y017777D01*
X002875Y017928D01*
X002875Y017605D02*
X002574Y017605D01*
X002674Y017505D01*
X002574Y017405D01*
X002875Y017405D01*
X002875Y017283D02*
X002875Y017133D01*
X002825Y017083D01*
X002725Y017083D01*
X002674Y017133D01*
X002674Y017283D01*
X002574Y017283D02*
X002875Y017283D01*
X002674Y017183D02*
X002574Y017083D01*
X003427Y016640D02*
X008221Y016640D01*
X008221Y016316D01*
X008221Y015390D02*
X008221Y013941D01*
X008221Y013015D02*
X008221Y011128D01*
X003089Y011128D01*
X002906Y011714D02*
X002906Y016033D01*
X002449Y016482D02*
X002408Y016480D01*
X002367Y016475D01*
X002327Y016466D01*
X002288Y016454D01*
X002250Y016438D01*
X002213Y016419D01*
X002178Y016397D01*
X002146Y016372D01*
X002115Y016344D01*
X002087Y016313D01*
X002062Y016281D01*
X002040Y016246D01*
X002021Y016209D01*
X002005Y016171D01*
X001993Y016132D01*
X001984Y016092D01*
X001979Y016051D01*
X001977Y016010D01*
X001977Y012388D01*
X001623Y012388D02*
X001621Y012347D01*
X001623Y012306D01*
X001629Y012265D01*
X001638Y012224D01*
X001650Y012185D01*
X001666Y012147D01*
X001685Y012110D01*
X001708Y012076D01*
X001733Y012043D01*
X001761Y012012D01*
X001792Y011985D01*
X001825Y011960D01*
X001860Y011938D01*
X001896Y011919D01*
X001935Y011903D01*
X001974Y011891D01*
X002015Y011882D01*
X002056Y011877D01*
X002410Y011877D02*
X002369Y011882D01*
X002328Y011891D01*
X002289Y011903D01*
X002250Y011919D01*
X002214Y011938D01*
X002179Y011960D01*
X002146Y011985D01*
X002115Y012012D01*
X002087Y012043D01*
X002062Y012076D01*
X002039Y012110D01*
X002020Y012147D01*
X002004Y012185D01*
X001992Y012224D01*
X001983Y012265D01*
X001977Y012306D01*
X001975Y012347D01*
X001977Y012388D01*
X001623Y012388D02*
X001623Y016010D01*
X001625Y016051D01*
X001630Y016092D01*
X001639Y016132D01*
X001651Y016171D01*
X001667Y016209D01*
X001686Y016246D01*
X001708Y016281D01*
X001733Y016313D01*
X001761Y016344D01*
X001792Y016372D01*
X001824Y016397D01*
X001859Y016419D01*
X001896Y016438D01*
X001934Y016454D01*
X001973Y016466D01*
X002013Y016475D01*
X002054Y016480D01*
X002095Y016482D01*
X000599Y016482D02*
X000558Y016480D01*
X000517Y016475D01*
X000477Y016466D01*
X000438Y016454D01*
X000400Y016438D01*
X000363Y016419D01*
X000328Y016397D01*
X000296Y016372D01*
X000265Y016344D01*
X000237Y016313D01*
X000212Y016281D01*
X000190Y016246D01*
X000171Y016209D01*
X000155Y016171D01*
X000143Y016132D01*
X000134Y016092D01*
X000129Y016051D01*
X000127Y016010D01*
X000127Y012388D01*
X000125Y012347D01*
X000127Y012306D01*
X000133Y012265D01*
X000142Y012224D01*
X000154Y012185D01*
X000170Y012147D01*
X000189Y012110D01*
X000212Y012076D01*
X000237Y012043D01*
X000265Y012012D01*
X000296Y011985D01*
X000329Y011960D01*
X000364Y011938D01*
X000400Y011919D01*
X000439Y011903D01*
X000478Y011891D01*
X000519Y011882D01*
X000560Y011877D01*
X004918Y008528D02*
X005068Y008528D01*
X005118Y008478D01*
X005118Y008378D01*
X005068Y008328D01*
X004918Y008328D01*
X005018Y008328D02*
X005118Y008228D01*
X005240Y008228D02*
X005441Y008228D01*
X005563Y008278D02*
X005613Y008228D01*
X005713Y008228D01*
X005763Y008278D01*
X005763Y008328D01*
X005713Y008378D01*
X005613Y008378D01*
X005563Y008428D01*
X005563Y008478D01*
X005613Y008528D01*
X005713Y008528D01*
X005763Y008478D01*
X005885Y008528D02*
X005885Y008228D01*
X006085Y008228D01*
X005985Y008378D02*
X005885Y008378D01*
X005885Y008528D02*
X006085Y008528D01*
X006207Y008528D02*
X006407Y008528D01*
X006307Y008528D02*
X006307Y008228D01*
X005441Y008528D02*
X005240Y008528D01*
X005240Y008228D01*
X005240Y008378D02*
X005340Y008378D01*
X004918Y008228D02*
X004918Y008528D01*
X010757Y015331D02*
X011217Y015331D01*
X011217Y016449D02*
X010757Y016449D01*
X013649Y021015D02*
X013784Y021015D01*
X013830Y021060D01*
X013830Y021240D01*
X013784Y021285D01*
X013649Y021285D01*
X013649Y021015D01*
X013944Y021015D02*
X014034Y021015D01*
X013989Y021015D02*
X013989Y021285D01*
X013944Y021285D02*
X014034Y021285D01*
X014140Y021240D02*
X014140Y021060D01*
X014185Y021015D01*
X014276Y021015D01*
X014321Y021060D01*
X014321Y021150D01*
X014231Y021150D01*
X014321Y021240D02*
X014276Y021285D01*
X014185Y021285D01*
X014140Y021240D01*
X014435Y021285D02*
X014525Y021285D01*
X014480Y021285D02*
X014480Y021015D01*
X014435Y021015D02*
X014525Y021015D01*
X014722Y021015D02*
X014722Y021285D01*
X014632Y021285D02*
X014812Y021285D01*
X014926Y021195D02*
X014926Y021015D01*
X014926Y021150D02*
X015106Y021150D01*
X015106Y021195D02*
X015106Y021015D01*
X015221Y021015D02*
X015221Y021285D01*
X015106Y021195D02*
X015016Y021285D01*
X014926Y021195D01*
X015221Y021015D02*
X015401Y021015D01*
X015810Y021015D02*
X015900Y021015D01*
X015855Y021015D02*
X015855Y021285D01*
X015810Y021285D02*
X015900Y021285D01*
X016187Y021285D02*
X016007Y021015D01*
X016301Y021060D02*
X016301Y021240D01*
X016346Y021285D01*
X016436Y021285D01*
X016481Y021240D01*
X016481Y021060D01*
X016436Y021015D01*
X016346Y021015D01*
X016301Y021060D01*
X009272Y001154D02*
X009272Y000974D01*
X009182Y000884D01*
X009092Y000974D01*
X009092Y001154D01*
X008978Y001109D02*
X008978Y001064D01*
X008933Y001019D01*
X008843Y001019D01*
X008798Y001064D01*
X008798Y001109D01*
X008843Y001154D01*
X008933Y001154D01*
X008978Y001109D01*
X008933Y001019D02*
X008978Y000974D01*
X008978Y000929D01*
X008933Y000884D01*
X008843Y000884D01*
X008798Y000929D01*
X008798Y000974D01*
X008843Y001019D01*
X008695Y000929D02*
X008695Y000884D01*
X008650Y000884D01*
X008650Y000929D01*
X008695Y000929D01*
X008536Y000884D02*
X008356Y000884D01*
X008446Y000884D02*
X008446Y001154D01*
X008356Y001064D01*
X009699Y000748D02*
X009880Y000748D01*
X009789Y000748D02*
X009789Y000478D01*
X009994Y000523D02*
X009994Y000613D01*
X010039Y000658D01*
X010129Y000658D01*
X010174Y000613D01*
X010174Y000568D01*
X009994Y000568D01*
X009994Y000523D02*
X010039Y000478D01*
X010129Y000478D01*
X010289Y000478D02*
X010424Y000478D01*
X010469Y000523D01*
X010424Y000568D01*
X010334Y000568D01*
X010289Y000613D01*
X010334Y000658D01*
X010469Y000658D01*
X010583Y000658D02*
X010673Y000658D01*
X010628Y000703D02*
X010628Y000523D01*
X010673Y000478D01*
X011012Y000478D02*
X011012Y000748D01*
X011192Y000478D01*
X011192Y000748D01*
X011307Y000613D02*
X011352Y000658D01*
X011442Y000658D01*
X011487Y000613D01*
X011487Y000523D01*
X011442Y000478D01*
X011352Y000478D01*
X011307Y000523D01*
X011307Y000613D01*
X011601Y000658D02*
X011601Y000478D01*
X011601Y000568D02*
X011691Y000658D01*
X011736Y000658D01*
X011847Y000658D02*
X011847Y000478D01*
X011937Y000478D02*
X011937Y000613D01*
X011982Y000658D01*
X012027Y000613D01*
X012027Y000478D01*
X011937Y000613D02*
X011892Y000658D01*
X011847Y000658D01*
D11*
X009299Y001296D02*
X008362Y001296D01*
X008831Y002078D01*
X009299Y001296D01*
X007337Y007820D02*
X007337Y007920D01*
X007137Y007920D02*
X007137Y007820D01*
X008953Y009478D02*
X009053Y009478D01*
X009053Y009678D02*
X008953Y009678D01*
X007962Y010090D02*
X007962Y010190D01*
X007762Y010190D02*
X007762Y010090D01*
X010312Y009615D02*
X010412Y009615D01*
X010412Y009415D02*
X010312Y009415D01*
X011947Y009665D02*
X012047Y009665D01*
X012047Y009865D02*
X011947Y009865D01*
X012637Y011528D02*
X012637Y011628D01*
X012837Y011628D02*
X012837Y011528D01*
X013389Y011528D02*
X013389Y011628D01*
X013589Y011628D02*
X013589Y011528D01*
X014637Y008690D02*
X014637Y008590D01*
X014837Y008590D02*
X014837Y008690D01*
X012537Y015415D02*
X012437Y015415D01*
X012437Y015615D02*
X012537Y015615D01*
X012537Y016165D02*
X012437Y016165D01*
X012437Y016365D02*
X012537Y016365D01*
X015893Y017640D02*
X015893Y018359D01*
X015893Y017640D02*
X017129Y017640D01*
X017400Y017640D02*
X017449Y017640D01*
X017720Y017640D02*
X018956Y017640D01*
X026206Y009359D02*
X026393Y009359D01*
X026393Y008734D01*
X026206Y008703D01*
X026206Y009359D01*
X026299Y008671D02*
X026268Y008640D01*
X026237Y008609D01*
X026299Y008546D01*
X026362Y008609D01*
X026362Y008671D01*
X026299Y008671D02*
X026299Y008609D01*
X026099Y008609D02*
X026101Y008637D01*
X026107Y008664D01*
X026116Y008690D01*
X026129Y008715D01*
X026146Y008738D01*
X026165Y008758D01*
X026187Y008775D01*
X026211Y008789D01*
X026237Y008799D01*
X026264Y008806D01*
X026292Y008809D01*
X026320Y008808D01*
X026347Y008803D01*
X026374Y008794D01*
X026399Y008782D01*
X026422Y008767D01*
X026443Y008748D01*
X026461Y008727D01*
X026476Y008703D01*
X026487Y008677D01*
X026495Y008651D01*
X026499Y008623D01*
X026499Y008595D01*
X026495Y008567D01*
X026487Y008541D01*
X026476Y008515D01*
X026461Y008491D01*
X026443Y008470D01*
X026422Y008451D01*
X026399Y008436D01*
X026374Y008424D01*
X026347Y008415D01*
X026320Y008410D01*
X026292Y008409D01*
X026264Y008412D01*
X026237Y008419D01*
X026211Y008429D01*
X026187Y008443D01*
X026165Y008460D01*
X026146Y008480D01*
X026129Y008503D01*
X026116Y008528D01*
X026107Y008554D01*
X026101Y008581D01*
X026099Y008609D01*
X006787Y017115D02*
X006687Y017115D01*
X006687Y017315D02*
X006787Y017315D01*
X004462Y017465D02*
X004462Y017565D01*
X004262Y017565D02*
X004262Y017465D01*
X003649Y017465D02*
X003649Y017565D01*
X003449Y017565D02*
X003449Y017465D01*
D12*
X008387Y018640D02*
X008387Y019140D01*
X008637Y019390D01*
X009137Y019390D01*
X009387Y019140D01*
X009637Y019390D01*
X010137Y019390D01*
X010387Y019140D01*
X010387Y018640D01*
X010137Y018390D01*
X009637Y018390D01*
X009387Y018640D01*
X009137Y018390D01*
X008637Y018390D01*
X008387Y018640D01*
X008637Y019890D02*
X009137Y019890D01*
X009387Y020140D01*
X009637Y019890D01*
X010137Y019890D01*
X010387Y020140D01*
X010637Y019890D01*
X011137Y019890D01*
X011387Y020140D01*
X011637Y019890D01*
X012137Y019890D01*
X012387Y020140D01*
X012637Y019890D01*
X013137Y019890D01*
X013387Y020140D01*
X013637Y019890D01*
X014137Y019890D01*
X014387Y020140D01*
X014637Y019890D01*
X015137Y019890D01*
X015387Y020140D01*
X015637Y019890D01*
X016137Y019890D01*
X016387Y020140D01*
X016637Y019890D01*
X017137Y019890D01*
X017387Y020140D01*
X017637Y019890D01*
X018137Y019890D01*
X018387Y020140D01*
X018387Y020640D01*
X018137Y020890D01*
X017637Y020890D01*
X017387Y020640D01*
X017137Y020890D01*
X016637Y020890D01*
X016387Y020640D01*
X016137Y020890D01*
X015637Y020890D01*
X015387Y020640D01*
X015137Y020890D01*
X014637Y020890D01*
X014387Y020640D01*
X014137Y020890D01*
X013637Y020890D01*
X013387Y020640D01*
X013137Y020890D01*
X012637Y020890D01*
X012387Y020640D01*
X012137Y020890D01*
X011637Y020890D01*
X011387Y020640D01*
X011137Y020890D01*
X010637Y020890D01*
X010387Y020640D01*
X010137Y020890D01*
X009637Y020890D01*
X009387Y020640D01*
X009137Y020890D01*
X008637Y020890D01*
X008387Y020640D01*
X008387Y020140D01*
X008637Y019890D01*
X010387Y019140D02*
X010387Y018640D01*
X010637Y018390D01*
X011137Y018390D01*
X011387Y018640D01*
X011637Y018390D01*
X012137Y018390D01*
X012387Y018640D01*
X012637Y018390D01*
X013137Y018390D01*
X013387Y018640D01*
X013637Y018390D01*
X014137Y018390D01*
X014387Y018640D01*
X014637Y018390D01*
X015137Y018390D01*
X015387Y018640D01*
X015637Y018390D01*
X016137Y018390D01*
X016387Y018640D01*
X016637Y018390D01*
X017137Y018390D01*
X017387Y018640D01*
X017637Y018390D01*
X018137Y018390D01*
X018387Y018640D01*
X018387Y019140D01*
X018137Y019390D01*
X017637Y019390D01*
X017387Y019140D01*
X017137Y019390D01*
X016637Y019390D01*
X016387Y019140D01*
X016137Y019390D01*
X015637Y019390D01*
X015387Y019140D01*
X015137Y019390D01*
X014637Y019390D01*
X014387Y019140D01*
X014137Y019390D01*
X013637Y019390D01*
X013387Y019140D01*
X013137Y019390D01*
X012637Y019390D01*
X012387Y019140D01*
X012137Y019390D01*
X011637Y019390D01*
X011387Y019140D01*
X011137Y019390D01*
X010637Y019390D01*
X010387Y019140D01*
X018987Y019140D02*
X018987Y018640D01*
X019237Y018390D01*
X019737Y018390D01*
X019987Y018640D01*
X020237Y018390D01*
X020737Y018390D01*
X020987Y018640D01*
X021237Y018390D01*
X021737Y018390D01*
X021987Y018640D01*
X022237Y018390D01*
X022737Y018390D01*
X022987Y018640D01*
X023237Y018390D01*
X023737Y018390D01*
X023987Y018640D01*
X024237Y018390D01*
X024737Y018390D01*
X024987Y018640D01*
X025237Y018390D01*
X025737Y018390D01*
X025987Y018640D01*
X026237Y018390D01*
X026737Y018390D01*
X026987Y018640D01*
X026987Y019140D01*
X026737Y019390D01*
X026237Y019390D01*
X025987Y019140D01*
X025737Y019390D01*
X025237Y019390D01*
X024987Y019140D01*
X024737Y019390D01*
X024237Y019390D01*
X023987Y019140D01*
X023737Y019390D01*
X023237Y019390D01*
X022987Y019140D01*
X022737Y019390D01*
X022237Y019390D01*
X021987Y019140D01*
X021737Y019390D01*
X021237Y019390D01*
X020987Y019140D01*
X020737Y019390D01*
X020237Y019390D01*
X019987Y019140D01*
X019737Y019390D01*
X019237Y019390D01*
X018987Y019140D01*
X019237Y019890D02*
X019737Y019890D01*
X019987Y020140D01*
X020237Y019890D01*
X020737Y019890D01*
X020987Y020140D01*
X021237Y019890D01*
X021737Y019890D01*
X021987Y020140D01*
X022237Y019890D01*
X022737Y019890D01*
X022987Y020140D01*
X023237Y019890D01*
X023737Y019890D01*
X023987Y020140D01*
X024237Y019890D01*
X024737Y019890D01*
X024987Y020140D01*
X025237Y019890D01*
X025737Y019890D01*
X025987Y020140D01*
X026237Y019890D01*
X026737Y019890D01*
X026987Y020140D01*
X026987Y020640D01*
X026737Y020890D01*
X026237Y020890D01*
X025987Y020640D01*
X025737Y020890D01*
X025237Y020890D01*
X024987Y020640D01*
X024737Y020890D01*
X024237Y020890D01*
X023987Y020640D01*
X023737Y020890D01*
X023237Y020890D01*
X022987Y020640D01*
X022737Y020890D01*
X022237Y020890D01*
X021987Y020640D01*
X021737Y020890D01*
X021237Y020890D01*
X020987Y020640D01*
X020737Y020890D01*
X020237Y020890D01*
X019987Y020640D01*
X019737Y020890D01*
X019237Y020890D01*
X018987Y020640D01*
X018987Y020140D01*
X019237Y019890D01*
X020487Y018390D02*
X020487Y018140D01*
X020237Y018140D02*
X020737Y018140D01*
X020987Y017890D01*
X021237Y018140D01*
X021737Y018140D01*
X021987Y017890D01*
X022237Y018140D01*
X022737Y018140D01*
X022987Y017890D01*
X023237Y018140D01*
X023737Y018140D01*
X023987Y017890D01*
X023987Y017390D01*
X023737Y017140D01*
X023237Y017140D01*
X022987Y017390D01*
X022737Y017140D01*
X022237Y017140D01*
X021987Y017390D01*
X021737Y017140D01*
X021237Y017140D01*
X020987Y017390D01*
X020737Y017140D01*
X020237Y017140D01*
X019987Y017390D01*
X019737Y017140D01*
X019237Y017140D01*
X018987Y017390D01*
X018987Y017890D01*
X019237Y018140D01*
X019737Y018140D01*
X019987Y017890D01*
X020237Y018140D01*
X021487Y018203D02*
X021487Y018390D01*
X022487Y018390D02*
X022487Y018140D01*
X023487Y018140D02*
X023487Y018390D01*
X025862Y012578D02*
X025862Y012140D01*
X026081Y012359D01*
X025862Y012578D01*
X025893Y012515D02*
X025893Y012296D01*
X025924Y012265D01*
X026018Y012359D01*
X026018Y012390D01*
X025956Y012453D01*
X025956Y012390D01*
X025924Y012359D01*
X025956Y012328D01*
X026686Y009166D02*
X026686Y008851D01*
X026456Y008640D02*
X026424Y008671D01*
X026424Y008609D01*
X026237Y008609D01*
X026206Y008640D01*
X026206Y008578D01*
X026237Y008546D01*
X026268Y008515D01*
X026237Y008515D01*
X026206Y008484D01*
X026331Y008484D01*
X026362Y008515D01*
X026393Y008515D01*
X026456Y008578D01*
X026456Y008640D01*
X026393Y008578D02*
X026331Y008515D01*
X026268Y008515D01*
X026237Y008546D02*
X026206Y008546D01*
X026174Y008578D01*
X026174Y008703D01*
X026237Y008703D02*
X026237Y008671D01*
X026206Y008640D01*
X026268Y008640D02*
X026268Y008671D01*
X026237Y008703D01*
X026299Y008828D02*
X026268Y008921D01*
X026331Y008921D01*
X026331Y008828D01*
X026686Y009166D02*
X026922Y009166D01*
X027552Y009166D02*
X027788Y009166D01*
X027788Y008851D01*
X026737Y003390D02*
X026237Y003390D01*
X025987Y003140D01*
X025737Y003390D01*
X025237Y003390D01*
X024987Y003140D01*
X024737Y003390D01*
X024237Y003390D01*
X023987Y003140D01*
X023737Y003390D01*
X023237Y003390D01*
X022987Y003140D01*
X022737Y003390D01*
X022237Y003390D01*
X021987Y003140D01*
X021737Y003390D01*
X021237Y003390D01*
X020987Y003140D01*
X020987Y002640D01*
X021237Y002390D01*
X021737Y002390D01*
X021987Y002640D01*
X022237Y002390D01*
X022737Y002390D01*
X022987Y002640D01*
X023237Y002390D01*
X023737Y002390D01*
X023987Y002640D01*
X024237Y002390D01*
X024737Y002390D01*
X024987Y002640D01*
X025237Y002390D01*
X025737Y002390D01*
X025987Y002640D01*
X026237Y002390D01*
X026737Y002390D01*
X026987Y002640D01*
X026987Y003140D01*
X026737Y003390D01*
X026737Y001890D02*
X026237Y001890D01*
X025987Y001640D01*
X025737Y001890D01*
X025237Y001890D01*
X024987Y001640D01*
X024737Y001890D01*
X024237Y001890D01*
X023987Y001640D01*
X023737Y001890D01*
X023237Y001890D01*
X022987Y001640D01*
X022737Y001890D01*
X022237Y001890D01*
X021987Y001640D01*
X021737Y001890D01*
X021237Y001890D01*
X020987Y001640D01*
X020987Y001140D01*
X021237Y000890D01*
X021737Y000890D01*
X021987Y001140D01*
X022237Y000890D01*
X022737Y000890D01*
X022987Y001140D01*
X023237Y000890D01*
X023737Y000890D01*
X023987Y001140D01*
X024237Y000890D01*
X024737Y000890D01*
X024987Y001140D01*
X025237Y000890D01*
X025737Y000890D01*
X025987Y001140D01*
X026237Y000890D01*
X026737Y000890D01*
X026987Y001140D01*
X026987Y001640D01*
X026737Y001890D01*
X019987Y001640D02*
X019987Y001140D01*
X019737Y000890D01*
X019237Y000890D01*
X018987Y001140D01*
X018737Y000890D01*
X018237Y000890D01*
X017987Y001140D01*
X017737Y000890D01*
X017237Y000890D01*
X016987Y001140D01*
X016737Y000890D01*
X016237Y000890D01*
X015987Y001140D01*
X015737Y000890D01*
X015237Y000890D01*
X014987Y001140D01*
X014737Y000890D01*
X014237Y000890D01*
X013987Y001140D01*
X013737Y000890D01*
X013237Y000890D01*
X012987Y001140D01*
X012737Y000890D01*
X012237Y000890D01*
X011987Y001140D01*
X011987Y001640D01*
X012237Y001890D01*
X012737Y001890D01*
X012987Y001640D01*
X013237Y001890D01*
X013737Y001890D01*
X013987Y001640D01*
X014237Y001890D01*
X014737Y001890D01*
X014987Y001640D01*
X015237Y001890D01*
X015737Y001890D01*
X015987Y001640D01*
X016237Y001890D01*
X016737Y001890D01*
X016987Y001640D01*
X017237Y001890D01*
X017737Y001890D01*
X017987Y001640D01*
X018237Y001890D01*
X018737Y001890D01*
X018987Y001640D01*
X019237Y001890D01*
X019737Y001890D01*
X019987Y001640D01*
X019737Y002390D02*
X019237Y002390D01*
X018987Y002640D01*
X018737Y002390D01*
X018237Y002390D01*
X017987Y002640D01*
X017737Y002390D01*
X017237Y002390D01*
X016987Y002640D01*
X016737Y002390D01*
X016237Y002390D01*
X015987Y002640D01*
X015737Y002390D01*
X015237Y002390D01*
X014987Y002640D01*
X014737Y002390D01*
X014237Y002390D01*
X013987Y002640D01*
X013737Y002390D01*
X013237Y002390D01*
X012987Y002640D01*
X012737Y002390D01*
X012237Y002390D01*
X011987Y002640D01*
X011987Y003140D01*
X012237Y003390D01*
X012737Y003390D01*
X012987Y003140D01*
X013237Y003390D01*
X013737Y003390D01*
X013987Y003140D01*
X014237Y003390D01*
X014737Y003390D01*
X014987Y003140D01*
X015237Y003390D01*
X015737Y003390D01*
X015987Y003140D01*
X016237Y003390D01*
X016737Y003390D01*
X016987Y003140D01*
X017237Y003390D01*
X017737Y003390D01*
X017987Y003140D01*
X018237Y003390D01*
X018737Y003390D01*
X018987Y003140D01*
X019237Y003390D01*
X019737Y003390D01*
X019987Y003140D01*
X019987Y002640D01*
X019737Y002390D01*
X011987Y002640D02*
X011987Y003140D01*
X011737Y003390D01*
X011237Y003390D01*
X010987Y003140D01*
X010737Y003390D01*
X010237Y003390D01*
X009987Y003140D01*
X009737Y003390D01*
X009237Y003390D01*
X008987Y003140D01*
X008987Y002640D01*
X009237Y002390D01*
X009737Y002390D01*
X009987Y002640D01*
X010237Y002390D01*
X010737Y002390D01*
X010987Y002640D01*
X011237Y002390D01*
X011737Y002390D01*
X011987Y002640D01*
X006862Y004484D02*
X006362Y003984D01*
X006281Y008703D02*
X005068Y008703D01*
X004674Y009214D02*
X004674Y010203D01*
X005068Y010703D02*
X006281Y010703D01*
X006674Y010191D02*
X006674Y009214D01*
X005174Y009703D02*
X005176Y009747D01*
X005182Y009791D01*
X005192Y009834D01*
X005205Y009876D01*
X005222Y009917D01*
X005243Y009956D01*
X005267Y009993D01*
X005294Y010028D01*
X005324Y010060D01*
X005357Y010090D01*
X005393Y010116D01*
X005430Y010140D01*
X005470Y010159D01*
X005511Y010176D01*
X005554Y010188D01*
X005597Y010197D01*
X005641Y010202D01*
X005685Y010203D01*
X005729Y010200D01*
X005773Y010193D01*
X005816Y010182D01*
X005858Y010168D01*
X005898Y010150D01*
X005937Y010128D01*
X005973Y010104D01*
X006007Y010076D01*
X006039Y010045D01*
X006068Y010011D01*
X006094Y009975D01*
X006116Y009937D01*
X006135Y009897D01*
X006150Y009855D01*
X006162Y009813D01*
X006170Y009769D01*
X006174Y009725D01*
X006174Y009681D01*
X006170Y009637D01*
X006162Y009593D01*
X006150Y009551D01*
X006135Y009509D01*
X006116Y009469D01*
X006094Y009431D01*
X006068Y009395D01*
X006039Y009361D01*
X006007Y009330D01*
X005973Y009302D01*
X005937Y009278D01*
X005898Y009256D01*
X005858Y009238D01*
X005816Y009224D01*
X005773Y009213D01*
X005729Y009206D01*
X005685Y009203D01*
X005641Y009204D01*
X005597Y009209D01*
X005554Y009218D01*
X005511Y009230D01*
X005470Y009247D01*
X005430Y009266D01*
X005393Y009290D01*
X005357Y009316D01*
X005324Y009346D01*
X005294Y009378D01*
X005267Y009413D01*
X005243Y009450D01*
X005222Y009489D01*
X005205Y009530D01*
X005192Y009572D01*
X005182Y009615D01*
X005176Y009659D01*
X005174Y009703D01*
X013213Y010034D02*
X013213Y010246D01*
X013363Y010700D02*
X013701Y010700D01*
X013701Y009580D02*
X013363Y009580D01*
D13*
X020987Y003140D02*
X021237Y003390D01*
X021749Y003390D01*
X021987Y003153D01*
X021987Y002640D01*
X021737Y002390D01*
X021237Y002390D01*
X020987Y002640D01*
X020987Y003140D01*
X016137Y018390D02*
X015637Y018390D01*
X015387Y018640D01*
X015387Y019140D01*
X015612Y019365D01*
X016162Y019365D02*
X016387Y019140D01*
X016387Y018640D01*
X016137Y018390D01*
X006874Y018890D02*
X006874Y019140D01*
X006866Y019187D01*
X006854Y019234D01*
X006838Y019279D01*
X006819Y019323D01*
X006796Y019365D01*
X006769Y019405D01*
X006739Y019442D01*
X006707Y019477D01*
X006671Y019510D01*
X006633Y019539D01*
X006593Y019565D01*
X006551Y019588D01*
X006507Y019607D01*
X006461Y019622D01*
X006415Y019633D01*
X006367Y019641D01*
X006320Y019645D01*
X006272Y019644D01*
X006224Y019640D01*
X002624Y019640D01*
X002576Y019644D01*
X002528Y019645D01*
X002481Y019641D01*
X002433Y019633D01*
X002387Y019622D01*
X002341Y019607D01*
X002297Y019588D01*
X002255Y019565D01*
X002215Y019539D01*
X002177Y019510D01*
X002141Y019477D01*
X002109Y019442D01*
X002079Y019405D01*
X002052Y019365D01*
X002029Y019323D01*
X002010Y019279D01*
X001994Y019234D01*
X001982Y019187D01*
X001974Y019140D01*
X001974Y018890D01*
X001982Y018843D01*
X001994Y018796D01*
X002010Y018751D01*
X002029Y018707D01*
X002052Y018665D01*
X002079Y018625D01*
X002109Y018588D01*
X002141Y018553D01*
X002177Y018520D01*
X002215Y018491D01*
X002255Y018465D01*
X002297Y018442D01*
X002341Y018423D01*
X002387Y018408D01*
X002433Y018397D01*
X002481Y018389D01*
X002528Y018385D01*
X002576Y018386D01*
X002624Y018390D01*
X006224Y018390D01*
X006269Y018386D01*
X006315Y018385D01*
X006360Y018388D01*
X006405Y018395D01*
X006450Y018405D01*
X006493Y018419D01*
X006536Y018435D01*
X006576Y018456D01*
X006615Y018479D01*
X006653Y018505D01*
X006688Y018534D01*
X006720Y018566D01*
X006750Y018601D01*
X006777Y018637D01*
X006802Y018676D01*
X006823Y018716D01*
X006841Y018758D01*
X006855Y018801D01*
X006866Y018845D01*
X006874Y018890D01*
D14*
X006656Y018907D02*
X006584Y018978D01*
X006441Y018978D01*
X006369Y019050D01*
X006441Y019122D01*
X006656Y019122D01*
X006656Y018907D02*
X006584Y018835D01*
X006369Y018835D01*
X006177Y018835D02*
X005962Y018835D01*
X005890Y018907D01*
X005890Y019050D01*
X005962Y019122D01*
X006177Y019122D01*
X005643Y019122D02*
X005643Y018835D01*
X005714Y018835D02*
X005571Y018835D01*
X005379Y018835D02*
X005379Y019050D01*
X005307Y019122D01*
X005092Y019122D01*
X005092Y018835D01*
X004900Y018907D02*
X004900Y019050D01*
X004829Y019122D01*
X004685Y019122D01*
X004613Y019050D01*
X004613Y018907D01*
X004685Y018835D01*
X004829Y018835D01*
X004900Y018907D01*
X004430Y019122D02*
X004358Y019122D01*
X004214Y018978D01*
X004214Y018835D02*
X004214Y019122D01*
X004039Y019122D02*
X003895Y019122D01*
X003967Y019194D02*
X003967Y018907D01*
X004039Y018835D01*
X003703Y018978D02*
X003416Y018978D01*
X003416Y018907D02*
X003416Y019050D01*
X003488Y019122D01*
X003632Y019122D01*
X003703Y019050D01*
X003703Y018978D01*
X003632Y018835D02*
X003488Y018835D01*
X003416Y018907D01*
X003224Y018978D02*
X002938Y018978D01*
X002938Y018907D02*
X002938Y019050D01*
X003009Y019122D01*
X003153Y019122D01*
X003224Y019050D01*
X003224Y018978D01*
X003153Y018835D02*
X003009Y018835D01*
X002938Y018907D01*
X002754Y019122D02*
X002682Y019122D01*
X002539Y018978D01*
X002539Y018835D02*
X002539Y019122D01*
X002363Y019050D02*
X002219Y019050D01*
X002291Y019194D02*
X002291Y018835D01*
X002291Y019194D02*
X002363Y019265D01*
X002405Y020585D02*
X002405Y020995D01*
X002592Y020859D02*
X002661Y020859D01*
X002661Y020585D01*
X002729Y020585D02*
X002592Y020585D01*
X002405Y020585D02*
X002269Y020722D01*
X002132Y020585D01*
X002132Y020995D01*
X002661Y020995D02*
X002661Y021064D01*
X002899Y020995D02*
X003173Y020995D01*
X003360Y020859D02*
X003428Y020859D01*
X003428Y020585D01*
X003360Y020585D02*
X003496Y020585D01*
X003428Y020995D02*
X003428Y021064D01*
X003036Y020790D02*
X002899Y020790D01*
X002899Y020585D02*
X002899Y020995D01*
X004127Y020927D02*
X004127Y020859D01*
X004195Y020790D01*
X004332Y020790D01*
X004400Y020722D01*
X004400Y020653D01*
X004332Y020585D01*
X004195Y020585D01*
X004127Y020653D01*
X004127Y020927D02*
X004195Y020995D01*
X004332Y020995D01*
X004400Y020927D01*
X004587Y020995D02*
X004587Y020585D01*
X004587Y020790D02*
X004656Y020859D01*
X004792Y020859D01*
X004861Y020790D01*
X004861Y020585D01*
X005048Y020585D02*
X005184Y020585D01*
X005116Y020585D02*
X005116Y020859D01*
X005048Y020859D01*
X005116Y020995D02*
X005116Y021064D01*
X005355Y020790D02*
X005423Y020859D01*
X005560Y020859D01*
X005628Y020790D01*
X005628Y020722D01*
X005355Y020722D01*
X005355Y020790D02*
X005355Y020653D01*
X005423Y020585D01*
X005560Y020585D01*
X005815Y020585D02*
X005952Y020585D01*
X005883Y020585D02*
X005883Y020995D01*
X005815Y020995D01*
X006122Y020790D02*
X006190Y020859D01*
X006396Y020859D01*
X006396Y020995D02*
X006396Y020585D01*
X006190Y020585D01*
X006122Y020653D01*
X006122Y020790D01*
X005643Y019337D02*
X005643Y019265D01*
X005643Y019122D02*
X005571Y019122D01*
X008657Y017179D02*
X008657Y016958D01*
X008730Y016885D01*
X008804Y016958D01*
X008877Y016885D01*
X008950Y016958D01*
X008950Y017179D01*
X009145Y017179D02*
X009145Y016958D01*
X009218Y016885D01*
X009292Y016958D01*
X009365Y016885D01*
X009438Y016958D01*
X009438Y017179D01*
X009633Y017179D02*
X009633Y016958D01*
X009706Y016885D01*
X009780Y016958D01*
X009853Y016885D01*
X009926Y016958D01*
X009926Y017179D01*
X010121Y016958D02*
X010194Y016958D01*
X010194Y016885D01*
X010121Y016885D01*
X010121Y016958D01*
X010365Y017105D02*
X010512Y017105D01*
X010438Y017252D02*
X010438Y016885D01*
X010690Y016885D02*
X010690Y017179D01*
X010837Y017179D02*
X010910Y017179D01*
X010837Y017179D02*
X010690Y017032D01*
X010438Y017252D02*
X010512Y017325D01*
X011097Y017105D02*
X011097Y016958D01*
X011170Y016885D01*
X011317Y016885D01*
X011391Y017032D02*
X011097Y017032D01*
X011097Y017105D02*
X011170Y017179D01*
X011317Y017179D01*
X011391Y017105D01*
X011391Y017032D01*
X011585Y017032D02*
X011879Y017032D01*
X011879Y017105D01*
X011805Y017179D01*
X011658Y017179D01*
X011585Y017105D01*
X011585Y016958D01*
X011658Y016885D01*
X011805Y016885D01*
X012146Y016958D02*
X012220Y016885D01*
X012146Y016958D02*
X012146Y017252D01*
X012073Y017179D02*
X012220Y017179D01*
X012398Y017179D02*
X012398Y016885D01*
X012398Y017032D02*
X012545Y017179D01*
X012619Y017179D01*
X012805Y017105D02*
X012805Y016958D01*
X012878Y016885D01*
X013025Y016885D01*
X013099Y016958D01*
X013099Y017105D01*
X013025Y017179D01*
X012878Y017179D01*
X012805Y017105D01*
X013293Y017179D02*
X013293Y016885D01*
X013293Y017179D02*
X013513Y017179D01*
X013587Y017105D01*
X013587Y016885D01*
X013781Y016885D02*
X013928Y016885D01*
X013854Y016885D02*
X013854Y017179D01*
X013781Y017179D01*
X013854Y017325D02*
X013854Y017399D01*
X014106Y017105D02*
X014106Y016958D01*
X014180Y016885D01*
X014400Y016885D01*
X014594Y016885D02*
X014815Y016885D01*
X014888Y016958D01*
X014815Y017032D01*
X014668Y017032D01*
X014594Y017105D01*
X014668Y017179D01*
X014888Y017179D01*
X015082Y016958D02*
X015156Y016958D01*
X015156Y016885D01*
X015082Y016885D01*
X015082Y016958D01*
X015326Y016958D02*
X015326Y017105D01*
X015400Y017179D01*
X015620Y017179D01*
X015814Y017105D02*
X015814Y016958D01*
X015888Y016885D01*
X016035Y016885D01*
X016108Y016958D01*
X016108Y017105D01*
X016035Y017179D01*
X015888Y017179D01*
X015814Y017105D01*
X015620Y016885D02*
X015400Y016885D01*
X015326Y016958D01*
X014400Y017179D02*
X014180Y017179D01*
X014106Y017105D01*
X016302Y017179D02*
X016302Y016885D01*
X016449Y016885D02*
X016449Y017105D01*
X016523Y017179D01*
X016596Y017105D01*
X016596Y016885D01*
X016790Y016885D02*
X017084Y017325D01*
X017279Y017179D02*
X017279Y016958D01*
X017352Y016885D01*
X017425Y016958D01*
X017499Y016885D01*
X017572Y016958D01*
X017572Y017179D01*
X017767Y017179D02*
X017840Y017179D01*
X017840Y016885D01*
X017767Y016885D02*
X017913Y016885D01*
X018165Y016885D02*
X018165Y017252D01*
X018239Y017325D01*
X018239Y017105D02*
X018092Y017105D01*
X018417Y017179D02*
X018491Y017179D01*
X018491Y016885D01*
X018564Y016885D02*
X018417Y016885D01*
X018491Y017325D02*
X018491Y017399D01*
X017840Y017399D02*
X017840Y017325D01*
X016449Y017105D02*
X016376Y017179D01*
X016302Y017179D01*
D15*
X020987Y018640D02*
X021237Y018390D01*
X021487Y018390D01*
X021737Y018390D01*
X021987Y018640D01*
X022237Y018390D01*
X022487Y018390D01*
X022737Y018390D01*
X022987Y018640D01*
X023237Y018390D01*
X023487Y018390D01*
X023737Y018390D01*
X023987Y018640D01*
X024237Y018390D01*
X024737Y018390D01*
X024987Y018640D01*
X024987Y019140D01*
X024737Y019390D01*
X024249Y019390D01*
X023987Y019128D01*
X023987Y018640D01*
X023987Y019140D02*
X023737Y019390D01*
X023637Y019390D01*
X023337Y019390D02*
X023237Y019390D01*
X022987Y019140D01*
X022737Y019390D01*
X022637Y019390D01*
X022337Y019390D02*
X022237Y019390D01*
X021987Y019140D01*
X021987Y018640D01*
X021987Y019140D02*
X021737Y019390D01*
X021624Y019390D01*
X021337Y019390D02*
X021237Y019390D01*
X020987Y019140D01*
X020987Y018653D01*
X022987Y018640D02*
X022987Y019140D01*
X008831Y001796D02*
X008831Y001640D01*
X008831Y001484D02*
X008831Y001453D01*
D16*
X009943Y001503D02*
X009943Y000903D01*
X009945Y000886D01*
X009949Y000869D01*
X009956Y000853D01*
X009966Y000839D01*
X009979Y000826D01*
X009993Y000816D01*
X010009Y000809D01*
X010026Y000805D01*
X010043Y000803D01*
X011743Y000803D01*
X011760Y000805D01*
X011777Y000809D01*
X011793Y000816D01*
X011807Y000826D01*
X011820Y000839D01*
X011830Y000853D01*
X011837Y000869D01*
X011841Y000886D01*
X011843Y000903D01*
X011843Y001503D01*
X011841Y001520D01*
X011837Y001537D01*
X011830Y001553D01*
X011820Y001567D01*
X011807Y001580D01*
X011793Y001590D01*
X011777Y001597D01*
X011760Y001601D01*
X011743Y001603D01*
X010043Y001603D01*
X010026Y001601D01*
X010009Y001597D01*
X009993Y001590D01*
X009979Y001580D01*
X009966Y001567D01*
X009956Y001553D01*
X009949Y001537D01*
X009945Y001520D01*
X009943Y001503D01*
X002477Y012094D02*
X002284Y012094D01*
X002236Y012143D01*
X002236Y012288D01*
X002526Y012288D01*
X002526Y012143D01*
X002477Y012094D01*
X002477Y012416D02*
X002381Y012416D01*
X002332Y012465D01*
X002332Y012610D01*
X002236Y012610D02*
X002526Y012610D01*
X002526Y012465D01*
X002477Y012416D01*
X002332Y012513D02*
X002236Y012416D01*
X002236Y012739D02*
X002429Y012739D01*
X002526Y012835D01*
X002429Y012932D01*
X002236Y012932D01*
X002284Y013061D02*
X002236Y013109D01*
X002236Y013206D01*
X002284Y013254D01*
X002477Y013254D01*
X002526Y013206D01*
X002526Y013109D01*
X002477Y013061D01*
X002381Y012932D02*
X002381Y012739D01*
X002284Y013706D02*
X002477Y013706D01*
X002526Y013754D01*
X002526Y013899D01*
X002236Y013899D01*
X002236Y013754D01*
X002284Y013706D01*
X002284Y014028D02*
X002236Y014076D01*
X002236Y014173D01*
X002284Y014221D01*
X002381Y014173D02*
X002381Y014076D01*
X002332Y014028D01*
X002284Y014028D01*
X002381Y014173D02*
X002429Y014221D01*
X002477Y014221D01*
X002526Y014173D01*
X002526Y014076D01*
X002477Y014028D01*
X002381Y014350D02*
X002381Y014544D01*
X002284Y014672D02*
X002477Y014672D01*
X002526Y014721D01*
X002526Y014817D01*
X002477Y014866D01*
X002284Y014866D01*
X002236Y014817D01*
X002236Y014721D01*
X002284Y014672D01*
X002236Y014995D02*
X002332Y015091D01*
X002332Y015043D02*
X002332Y015188D01*
X002236Y015188D02*
X002526Y015188D01*
X002526Y015043D01*
X002477Y014995D01*
X002381Y014995D01*
X002332Y015043D01*
X002284Y015317D02*
X002236Y015365D01*
X002236Y015462D01*
X002284Y015510D01*
X002477Y015510D01*
X002526Y015462D01*
X002526Y015365D01*
X002477Y015317D01*
X002526Y015628D02*
X002526Y015725D01*
X002526Y015677D02*
X002236Y015677D01*
X002236Y015725D02*
X002236Y015628D01*
X002236Y015854D02*
X002526Y015854D01*
X002429Y015951D01*
X002526Y016048D01*
X002236Y016048D01*
X025486Y012419D02*
X025579Y012513D01*
X025579Y012233D01*
X025486Y012233D02*
X025672Y012233D01*
X027312Y007915D02*
X027912Y007915D01*
X027929Y007913D01*
X027946Y007909D01*
X027962Y007902D01*
X027976Y007892D01*
X027989Y007879D01*
X027999Y007865D01*
X028006Y007849D01*
X028010Y007832D01*
X028012Y007815D01*
X028012Y006715D01*
X028010Y006698D01*
X028006Y006681D01*
X027999Y006665D01*
X027989Y006651D01*
X027976Y006638D01*
X027962Y006628D01*
X027946Y006621D01*
X027929Y006617D01*
X027912Y006615D01*
X027312Y006615D01*
X027295Y006617D01*
X027278Y006621D01*
X027262Y006628D01*
X027248Y006638D01*
X027235Y006651D01*
X027225Y006665D01*
X027218Y006681D01*
X027214Y006698D01*
X027212Y006715D01*
X027212Y007815D01*
X027214Y007832D01*
X027218Y007849D01*
X027225Y007865D01*
X027235Y007879D01*
X027248Y007892D01*
X027262Y007902D01*
X027278Y007909D01*
X027295Y007913D01*
X027312Y007915D01*
D17*
X014102Y009110D02*
X014102Y003795D01*
X007684Y003795D01*
X007684Y009110D01*
X014102Y009110D01*
D18*
X008707Y003401D02*
X008709Y003417D01*
X008714Y003432D01*
X008723Y003446D01*
X008735Y003457D01*
X008749Y003465D01*
X008765Y003470D01*
X008781Y003471D01*
X008797Y003468D01*
X008812Y003462D01*
X008825Y003452D01*
X008835Y003439D01*
X008843Y003425D01*
X008847Y003409D01*
X008847Y003393D01*
X008843Y003377D01*
X008835Y003363D01*
X008825Y003350D01*
X008812Y003340D01*
X008797Y003334D01*
X008781Y003331D01*
X008765Y003332D01*
X008749Y003337D01*
X008735Y003345D01*
X008723Y003356D01*
X008714Y003370D01*
X008709Y003385D01*
X008707Y003401D01*
D19*
X009929Y010390D02*
X010287Y010390D01*
X010289Y010417D01*
X010294Y010444D01*
X010304Y010470D01*
X010316Y010494D01*
X010332Y010516D01*
X010350Y010536D01*
X010372Y010553D01*
X010395Y010568D01*
X010420Y010578D01*
X010446Y010586D01*
X010473Y010590D01*
X010501Y010590D01*
X010528Y010586D01*
X010554Y010578D01*
X010579Y010568D01*
X010602Y010553D01*
X010624Y010536D01*
X010642Y010516D01*
X010658Y010494D01*
X010670Y010470D01*
X010680Y010444D01*
X010685Y010417D01*
X010687Y010390D01*
X011044Y010390D01*
X011067Y010392D01*
X011090Y010397D01*
X011112Y010406D01*
X011132Y010419D01*
X011150Y010434D01*
X011165Y010452D01*
X011178Y010472D01*
X011187Y010494D01*
X011192Y010517D01*
X011194Y010540D01*
X011194Y014240D01*
X011192Y014263D01*
X011187Y014286D01*
X011178Y014308D01*
X011165Y014328D01*
X011150Y014346D01*
X011132Y014361D01*
X011112Y014374D01*
X011090Y014383D01*
X011067Y014388D01*
X011044Y014390D01*
X009929Y014390D01*
X009906Y014388D01*
X009883Y014383D01*
X009861Y014374D01*
X009841Y014361D01*
X009823Y014346D01*
X009808Y014328D01*
X009795Y014308D01*
X009786Y014286D01*
X009781Y014263D01*
X009779Y014240D01*
X009779Y010540D01*
X009781Y010517D01*
X009786Y010494D01*
X009795Y010472D01*
X009808Y010452D01*
X009823Y010434D01*
X009841Y010419D01*
X009861Y010406D01*
X009883Y010397D01*
X009906Y010392D01*
X009929Y010390D01*
D20*
X002407Y017445D02*
X002237Y017445D01*
X002087Y017585D01*
X002387Y017585D01*
X002237Y017444D01*
X002237Y017445D02*
X002067Y017445D01*
M02*
