G75*
G70*
%OFA0B0*%
%FSLAX24Y24*%
%IPPOS*%
%LPD*%
%AMOC8*
5,1,8,0,0,1.08239X$1,22.5*
%
%ADD10C,0.0680*%
%ADD11C,0.0740*%
%ADD12C,0.1458*%
%ADD13C,0.1025*%
%ADD14R,0.0680X0.0680*%
D10*
X009487Y002890D03*
X010487Y002890D03*
X011487Y002890D03*
X012487Y002890D03*
X013487Y002890D03*
X014487Y002890D03*
X015487Y002890D03*
X016487Y002890D03*
X017487Y002890D03*
X018487Y002890D03*
X018737Y004390D03*
X019737Y004390D03*
X020737Y004390D03*
X021737Y004390D03*
X022737Y004390D03*
X023737Y004390D03*
X024737Y004390D03*
X025737Y004390D03*
X025737Y005390D03*
X024737Y005390D03*
X023737Y005390D03*
X022737Y005390D03*
X021737Y005390D03*
X020737Y005390D03*
X019737Y005390D03*
X018737Y005390D03*
X017737Y005390D03*
X016737Y005390D03*
X016737Y004390D03*
X017737Y004390D03*
X017737Y006390D03*
X016737Y006390D03*
X016737Y007390D03*
X017737Y007390D03*
X018737Y007390D03*
X019737Y007390D03*
X020737Y007390D03*
X021737Y007390D03*
X022737Y007390D03*
X023737Y007390D03*
X024737Y007390D03*
X024737Y006390D03*
X025737Y006390D03*
X023737Y006390D03*
X022737Y006390D03*
X021737Y006390D03*
X020737Y006390D03*
X019737Y006390D03*
X018737Y006390D03*
X018737Y008390D03*
X019737Y008390D03*
X020737Y008390D03*
X021737Y008390D03*
X022737Y008390D03*
X023737Y008390D03*
X024737Y008390D03*
X024737Y009390D03*
X024737Y010390D03*
X023737Y010390D03*
X022737Y010390D03*
X022737Y009390D03*
X023737Y009390D03*
X021737Y009390D03*
X020737Y009390D03*
X020737Y010390D03*
X021737Y010390D03*
X021737Y011390D03*
X020737Y011390D03*
X020737Y012390D03*
X021737Y012390D03*
X022737Y012390D03*
X023737Y012390D03*
X024737Y012390D03*
X024737Y011390D03*
X023737Y011390D03*
X022737Y011390D03*
X022737Y013390D03*
X023737Y013390D03*
X024737Y013390D03*
X024737Y014390D03*
X024737Y015390D03*
X023737Y015390D03*
X022737Y015390D03*
X022737Y014390D03*
X023737Y014390D03*
X021737Y014390D03*
X020737Y014390D03*
X020737Y015390D03*
X021737Y015390D03*
X019737Y015390D03*
X018737Y015390D03*
X018737Y014390D03*
X019737Y014390D03*
X019737Y013390D03*
X018737Y013390D03*
X017737Y013390D03*
X016737Y013390D03*
X015737Y013390D03*
X015737Y014390D03*
X014737Y014390D03*
X014737Y015390D03*
X015737Y015390D03*
X016737Y015390D03*
X017737Y015390D03*
X017737Y014390D03*
X016737Y014390D03*
X016737Y012390D03*
X017737Y012390D03*
X018737Y012390D03*
X019737Y012390D03*
X019737Y011390D03*
X018737Y011390D03*
X017737Y011390D03*
X016737Y011390D03*
X016737Y010390D03*
X017737Y010390D03*
X018737Y010390D03*
X019737Y010390D03*
X019737Y009390D03*
X018737Y009390D03*
X017737Y009390D03*
X016737Y009390D03*
X016737Y008390D03*
X017737Y008390D03*
X020737Y013390D03*
X021737Y013390D03*
X021487Y017640D03*
X022487Y017640D03*
X023487Y017640D03*
X024487Y017640D03*
X024487Y018890D03*
X023487Y018890D03*
X022487Y018890D03*
X021487Y018890D03*
X020487Y018890D03*
X019487Y018890D03*
X020487Y017640D03*
X016887Y018890D03*
X015887Y018890D03*
X014887Y018890D03*
X013887Y018890D03*
X012887Y018890D03*
X011887Y018890D03*
X010887Y018890D03*
X009887Y018890D03*
X008887Y018890D03*
X013737Y015390D03*
X013737Y014390D03*
X025487Y018890D03*
X025487Y002890D03*
X026487Y002890D03*
X024487Y002890D03*
X023487Y002890D03*
X022487Y002890D03*
X021487Y002890D03*
D11*
X021487Y001390D03*
X022487Y001390D03*
X023487Y001390D03*
X024487Y001390D03*
X025487Y001390D03*
X026487Y001390D03*
X019487Y001390D03*
X018487Y001390D03*
X017487Y001390D03*
X016487Y001390D03*
X015487Y001390D03*
X014487Y001390D03*
X013487Y001390D03*
X012487Y001390D03*
X026542Y010370D03*
X027542Y010370D03*
X027542Y011370D03*
X026542Y011370D03*
X026542Y012370D03*
X027542Y012370D03*
X026487Y020390D03*
X025487Y020390D03*
X024487Y020390D03*
X023487Y020390D03*
X022487Y020390D03*
X021487Y020390D03*
X020487Y020390D03*
X019487Y020390D03*
X017887Y020390D03*
X016887Y020390D03*
X015887Y020390D03*
X014887Y020390D03*
X013887Y020390D03*
X012887Y020390D03*
X011887Y020390D03*
X010887Y020390D03*
X009887Y020390D03*
X008887Y020390D03*
D12*
X006987Y001390D03*
X027487Y014390D03*
X007487Y020390D03*
D13*
X027487Y003390D03*
D14*
X019487Y002890D03*
X017887Y018890D03*
X026487Y018890D03*
M02*
