%
M48
M72
T01C0.0130
T02C0.0394
T03C0.0400
T04C0.0945
T05C0.1378
%
T01
X3237Y2265
X3862Y2265
X4487Y2265
X5112Y2265
X5737Y2265
X6237Y2390
X6737Y2640
X7237Y3015
X6487Y3640
X5987Y3265
X5362Y3265
X4737Y3265
X4112Y3265
X3487Y3265
X3799Y4328
X4299Y4828
X5049Y4828
X5987Y4828
X6299Y4453
X6674Y4828
X7549Y4828
X7487Y5765
X6737Y5765
X5987Y5765
X5237Y5765
X4487Y5765
X3737Y5765
X6487Y8390
X8487Y10390
X7487Y10640
X7737Y11140
X7987Y11890
X7487Y12390
X7987Y12765
X7487Y13140
X6737Y13765
X7487Y14203
X9612Y15640
X9862Y16265
X10987Y15890
X10737Y14890
X11499Y14878
X10737Y14140
X10237Y14265
X10237Y13765
X10237Y13328
X10112Y12640
X10924Y12140
X10112Y11515
X10737Y11140
X10737Y10640
X10362Y10015
X12737Y12640
X12362Y13640
X11049Y13140
X12787Y15128
X14362Y12640
X14737Y12265
X14612Y9767
X15112Y6640
X14341Y5744
X14368Y5271
X14987Y4890
X14612Y4515
X13258Y5744
X12074Y3540
X10612Y3546
X7487Y3765
X4612Y14390
X4737Y16390
X26706Y13171
T02
X26542Y12370
X26542Y11370
X27542Y11370
X27542Y12370
X27542Y10370
X26542Y10370
X26487Y1390
X25487Y1390
X24487Y1390
X23487Y1390
X22487Y1390
X21487Y1390
X19487Y1390
X18487Y1390
X17487Y1390
X16487Y1390
X15487Y1390
X14487Y1390
X13487Y1390
X12487Y1390
X12887Y20390
X13887Y20390
X14887Y20390
X15887Y20390
X16887Y20390
X17887Y20390
X19487Y20390
X20487Y20390
X21487Y20390
X22487Y20390
X23487Y20390
X24487Y20390
X25487Y20390
X26487Y20390
X11887Y20390
X10887Y20390
X9887Y20390
X8887Y20390
T03
X8887Y18890
X9887Y18890
X10887Y18890
X11887Y18890
X12887Y18890
X13887Y18890
X14887Y18890
X15887Y18890
X16887Y18890
X17887Y18890
X19487Y18890
X20487Y18890
X21487Y18890
X22487Y18890
X23487Y18890
X24487Y18890
X25487Y18890
X26487Y18890
X23487Y17640
X22487Y17640
X21487Y17640
X20487Y17640
X19487Y17640
X19737Y15390
X18737Y15390
X18737Y14390
X19737Y14390
X20737Y14390
X21737Y14390
X22737Y14390
X23737Y14390
X24737Y14390
X24737Y15390
X23737Y15390
X22737Y15390
X21737Y15390
X20737Y15390
X20737Y13390
X21737Y13390
X22737Y13390
X23737Y13390
X24737Y13390
X24737Y12390
X24737Y11390
X23737Y11390
X22737Y11390
X22737Y12390
X23737Y12390
X21737Y12390
X20737Y12390
X20737Y11390
X21737Y11390
X21737Y10390
X20737Y10390
X20737Y9390
X21737Y9390
X22737Y9390
X23737Y9390
X24737Y9390
X24737Y10390
X23737Y10390
X22737Y10390
X22737Y8390
X23737Y8390
X24737Y8390
X24737Y7390
X24737Y6390
X25737Y6390
X25737Y5390
X24737Y5390
X24737Y4390
X25737Y4390
X25487Y2890
X26487Y2890
X24487Y2890
X23487Y2890
X22487Y2890
X21487Y2890
X21737Y4390
X20737Y4390
X20737Y5390
X21737Y5390
X22737Y5390
X23737Y5390
X23737Y4390
X22737Y4390
X22737Y6390
X23737Y6390
X23737Y7390
X22737Y7390
X21737Y7390
X20737Y7390
X20737Y6390
X21737Y6390
X19737Y6390
X18737Y6390
X18737Y7390
X19737Y7390
X19737Y8390
X18737Y8390
X17737Y8390
X16737Y8390
X16737Y7390
X17737Y7390
X17737Y6390
X16737Y6390
X16737Y5390
X17737Y5390
X18737Y5390
X19737Y5390
X19737Y4390
X18737Y4390
X17737Y4390
X16737Y4390
X16487Y2890
X15487Y2890
X14487Y2890
X13487Y2890
X12487Y2890
X11487Y2890
X10487Y2890
X9487Y2890
X17487Y2890
X18487Y2890
X19487Y2890
X20737Y8390
X21737Y8390
X19737Y9390
X18737Y9390
X18737Y10390
X19737Y10390
X19737Y11390
X18737Y11390
X18737Y12390
X19737Y12390
X19737Y13390
X18737Y13390
X17737Y13390
X16737Y13390
X15737Y13390
X15737Y14390
X14737Y14390
X14737Y15390
X15737Y15390
X16737Y15390
X17737Y15390
X17737Y14390
X16737Y14390
X16737Y12390
X17737Y12390
X17737Y11390
X16737Y11390
X16737Y10390
X17737Y10390
X17737Y9390
X16737Y9390
X13737Y14390
X13737Y15390
T04
X27487Y3390
T05
X27487Y14390
X7487Y20390
X6987Y1390
M30
