G75*
G70*
%OFA0B0*%
%FSLAX24Y24*%
%IPPOS*%
%LPD*%
%AMOC8*
5,1,8,0,0,1.08239X$1,22.5*
%
%ADD10C,0.0000*%
D10*
X001487Y001390D02*
X001487Y020390D01*
X001489Y020450D01*
X001494Y020511D01*
X001503Y020570D01*
X001516Y020629D01*
X001532Y020688D01*
X001552Y020745D01*
X001575Y020800D01*
X001602Y020855D01*
X001631Y020907D01*
X001664Y020958D01*
X001700Y021007D01*
X001738Y021053D01*
X001780Y021097D01*
X001824Y021139D01*
X001870Y021177D01*
X001919Y021213D01*
X001970Y021246D01*
X002022Y021275D01*
X002077Y021302D01*
X002132Y021325D01*
X002189Y021345D01*
X002248Y021361D01*
X002307Y021374D01*
X002366Y021383D01*
X002427Y021388D01*
X002487Y021390D01*
X026487Y021390D01*
X026547Y021388D01*
X026608Y021383D01*
X026667Y021374D01*
X026726Y021361D01*
X026785Y021345D01*
X026842Y021325D01*
X026897Y021302D01*
X026952Y021275D01*
X027004Y021246D01*
X027055Y021213D01*
X027104Y021177D01*
X027150Y021139D01*
X027194Y021097D01*
X027236Y021053D01*
X027274Y021007D01*
X027310Y020958D01*
X027343Y020907D01*
X027372Y020855D01*
X027399Y020800D01*
X027422Y020745D01*
X027442Y020688D01*
X027458Y020629D01*
X027471Y020570D01*
X027480Y020511D01*
X027485Y020450D01*
X027487Y020390D01*
X027487Y016290D01*
X028487Y015290D01*
X028487Y002390D01*
X027487Y001390D01*
X027485Y001330D01*
X027480Y001269D01*
X027471Y001210D01*
X027458Y001151D01*
X027442Y001092D01*
X027422Y001035D01*
X027399Y000980D01*
X027372Y000925D01*
X027343Y000873D01*
X027310Y000822D01*
X027274Y000773D01*
X027236Y000727D01*
X027194Y000683D01*
X027150Y000641D01*
X027104Y000603D01*
X027055Y000567D01*
X027004Y000534D01*
X026952Y000505D01*
X026897Y000478D01*
X026842Y000455D01*
X026785Y000435D01*
X026726Y000419D01*
X026667Y000406D01*
X026608Y000397D01*
X026547Y000392D01*
X026487Y000390D01*
X002487Y000390D01*
X002427Y000392D01*
X002366Y000397D01*
X002307Y000406D01*
X002248Y000419D01*
X002189Y000435D01*
X002132Y000455D01*
X002077Y000478D01*
X002022Y000505D01*
X001970Y000534D01*
X001919Y000567D01*
X001870Y000603D01*
X001824Y000641D01*
X001780Y000683D01*
X001738Y000727D01*
X001700Y000773D01*
X001664Y000822D01*
X001631Y000873D01*
X001602Y000925D01*
X001575Y000980D01*
X001552Y001035D01*
X001532Y001092D01*
X001516Y001151D01*
X001503Y001210D01*
X001494Y001269D01*
X001489Y001330D01*
X001487Y001390D01*
X006298Y001390D02*
X006300Y001442D01*
X006306Y001494D01*
X006316Y001545D01*
X006329Y001595D01*
X006347Y001645D01*
X006368Y001692D01*
X006392Y001738D01*
X006421Y001782D01*
X006452Y001824D01*
X006486Y001863D01*
X006523Y001900D01*
X006563Y001933D01*
X006606Y001964D01*
X006650Y001991D01*
X006696Y002015D01*
X006745Y002035D01*
X006794Y002051D01*
X006845Y002064D01*
X006896Y002073D01*
X006948Y002078D01*
X007000Y002079D01*
X007052Y002076D01*
X007104Y002069D01*
X007155Y002058D01*
X007205Y002044D01*
X007254Y002025D01*
X007301Y002003D01*
X007346Y001978D01*
X007390Y001949D01*
X007431Y001917D01*
X007470Y001882D01*
X007505Y001844D01*
X007538Y001803D01*
X007568Y001761D01*
X007594Y001716D01*
X007617Y001669D01*
X007636Y001620D01*
X007652Y001570D01*
X007664Y001520D01*
X007672Y001468D01*
X007676Y001416D01*
X007676Y001364D01*
X007672Y001312D01*
X007664Y001260D01*
X007652Y001210D01*
X007636Y001160D01*
X007617Y001111D01*
X007594Y001064D01*
X007568Y001019D01*
X007538Y000977D01*
X007505Y000936D01*
X007470Y000898D01*
X007431Y000863D01*
X007390Y000831D01*
X007346Y000802D01*
X007301Y000777D01*
X007254Y000755D01*
X007205Y000736D01*
X007155Y000722D01*
X007104Y000711D01*
X007052Y000704D01*
X007000Y000701D01*
X006948Y000702D01*
X006896Y000707D01*
X006845Y000716D01*
X006794Y000729D01*
X006745Y000745D01*
X006696Y000765D01*
X006650Y000789D01*
X006606Y000816D01*
X006563Y000847D01*
X006523Y000880D01*
X006486Y000917D01*
X006452Y000956D01*
X006421Y000998D01*
X006392Y001042D01*
X006368Y001088D01*
X006347Y001135D01*
X006329Y001185D01*
X006316Y001235D01*
X006306Y001286D01*
X006300Y001338D01*
X006298Y001390D01*
X027015Y003390D02*
X027017Y003433D01*
X027023Y003475D01*
X027033Y003517D01*
X027046Y003558D01*
X027063Y003598D01*
X027084Y003635D01*
X027108Y003671D01*
X027135Y003704D01*
X027165Y003735D01*
X027198Y003763D01*
X027233Y003788D01*
X027270Y003809D01*
X027309Y003827D01*
X027349Y003841D01*
X027391Y003852D01*
X027433Y003859D01*
X027476Y003862D01*
X027519Y003861D01*
X027562Y003856D01*
X027604Y003847D01*
X027645Y003835D01*
X027685Y003819D01*
X027723Y003799D01*
X027759Y003776D01*
X027793Y003749D01*
X027825Y003720D01*
X027853Y003688D01*
X027879Y003653D01*
X027901Y003617D01*
X027920Y003578D01*
X027935Y003538D01*
X027947Y003497D01*
X027955Y003454D01*
X027959Y003411D01*
X027959Y003369D01*
X027955Y003326D01*
X027947Y003283D01*
X027935Y003242D01*
X027920Y003202D01*
X027901Y003163D01*
X027879Y003127D01*
X027853Y003092D01*
X027825Y003060D01*
X027793Y003031D01*
X027759Y003004D01*
X027723Y002981D01*
X027685Y002961D01*
X027645Y002945D01*
X027604Y002933D01*
X027562Y002924D01*
X027519Y002919D01*
X027476Y002918D01*
X027433Y002921D01*
X027391Y002928D01*
X027349Y002939D01*
X027309Y002953D01*
X027270Y002971D01*
X027233Y002992D01*
X027198Y003017D01*
X027165Y003045D01*
X027135Y003076D01*
X027108Y003109D01*
X027084Y003145D01*
X027063Y003182D01*
X027046Y003222D01*
X027033Y003263D01*
X027023Y003305D01*
X027017Y003347D01*
X027015Y003390D01*
X026798Y014390D02*
X026800Y014442D01*
X026806Y014494D01*
X026816Y014545D01*
X026829Y014595D01*
X026847Y014645D01*
X026868Y014692D01*
X026892Y014738D01*
X026921Y014782D01*
X026952Y014824D01*
X026986Y014863D01*
X027023Y014900D01*
X027063Y014933D01*
X027106Y014964D01*
X027150Y014991D01*
X027196Y015015D01*
X027245Y015035D01*
X027294Y015051D01*
X027345Y015064D01*
X027396Y015073D01*
X027448Y015078D01*
X027500Y015079D01*
X027552Y015076D01*
X027604Y015069D01*
X027655Y015058D01*
X027705Y015044D01*
X027754Y015025D01*
X027801Y015003D01*
X027846Y014978D01*
X027890Y014949D01*
X027931Y014917D01*
X027970Y014882D01*
X028005Y014844D01*
X028038Y014803D01*
X028068Y014761D01*
X028094Y014716D01*
X028117Y014669D01*
X028136Y014620D01*
X028152Y014570D01*
X028164Y014520D01*
X028172Y014468D01*
X028176Y014416D01*
X028176Y014364D01*
X028172Y014312D01*
X028164Y014260D01*
X028152Y014210D01*
X028136Y014160D01*
X028117Y014111D01*
X028094Y014064D01*
X028068Y014019D01*
X028038Y013977D01*
X028005Y013936D01*
X027970Y013898D01*
X027931Y013863D01*
X027890Y013831D01*
X027846Y013802D01*
X027801Y013777D01*
X027754Y013755D01*
X027705Y013736D01*
X027655Y013722D01*
X027604Y013711D01*
X027552Y013704D01*
X027500Y013701D01*
X027448Y013702D01*
X027396Y013707D01*
X027345Y013716D01*
X027294Y013729D01*
X027245Y013745D01*
X027196Y013765D01*
X027150Y013789D01*
X027106Y013816D01*
X027063Y013847D01*
X027023Y013880D01*
X026986Y013917D01*
X026952Y013956D01*
X026921Y013998D01*
X026892Y014042D01*
X026868Y014088D01*
X026847Y014135D01*
X026829Y014185D01*
X026816Y014235D01*
X026806Y014286D01*
X026800Y014338D01*
X026798Y014390D01*
X006798Y020390D02*
X006800Y020442D01*
X006806Y020494D01*
X006816Y020545D01*
X006829Y020595D01*
X006847Y020645D01*
X006868Y020692D01*
X006892Y020738D01*
X006921Y020782D01*
X006952Y020824D01*
X006986Y020863D01*
X007023Y020900D01*
X007063Y020933D01*
X007106Y020964D01*
X007150Y020991D01*
X007196Y021015D01*
X007245Y021035D01*
X007294Y021051D01*
X007345Y021064D01*
X007396Y021073D01*
X007448Y021078D01*
X007500Y021079D01*
X007552Y021076D01*
X007604Y021069D01*
X007655Y021058D01*
X007705Y021044D01*
X007754Y021025D01*
X007801Y021003D01*
X007846Y020978D01*
X007890Y020949D01*
X007931Y020917D01*
X007970Y020882D01*
X008005Y020844D01*
X008038Y020803D01*
X008068Y020761D01*
X008094Y020716D01*
X008117Y020669D01*
X008136Y020620D01*
X008152Y020570D01*
X008164Y020520D01*
X008172Y020468D01*
X008176Y020416D01*
X008176Y020364D01*
X008172Y020312D01*
X008164Y020260D01*
X008152Y020210D01*
X008136Y020160D01*
X008117Y020111D01*
X008094Y020064D01*
X008068Y020019D01*
X008038Y019977D01*
X008005Y019936D01*
X007970Y019898D01*
X007931Y019863D01*
X007890Y019831D01*
X007846Y019802D01*
X007801Y019777D01*
X007754Y019755D01*
X007705Y019736D01*
X007655Y019722D01*
X007604Y019711D01*
X007552Y019704D01*
X007500Y019701D01*
X007448Y019702D01*
X007396Y019707D01*
X007345Y019716D01*
X007294Y019729D01*
X007245Y019745D01*
X007196Y019765D01*
X007150Y019789D01*
X007106Y019816D01*
X007063Y019847D01*
X007023Y019880D01*
X006986Y019917D01*
X006952Y019956D01*
X006921Y019998D01*
X006892Y020042D01*
X006868Y020088D01*
X006847Y020135D01*
X006829Y020185D01*
X006816Y020235D01*
X006806Y020286D01*
X006800Y020338D01*
X006798Y020390D01*
M02*
